<svg width="292" height="292" viewBox="0 0 292 292" fill="none" xmlns="http://www.w3.org/2000/svg">
<rect width="291.81" height="291.14" rx="145.57" fill="#F6F9F2"/>
<path d="M79.6231 153.212L95.5181 117.572L97.3881 120.762H75.5531L78.9631 117.297V127.307H72.3081V114.712H102.228V119.497L87.2681 153.212H79.6231ZM121.636 153.762C118.592 153.762 115.842 152.992 113.386 151.452C110.966 149.912 109.059 147.675 107.666 144.742C106.272 141.772 105.576 138.179 105.576 133.962C105.576 129.745 106.272 126.17 107.666 123.237C109.059 120.267 110.966 118.012 113.386 116.472C115.842 114.932 118.592 114.162 121.636 114.162C124.716 114.162 127.466 114.932 129.886 116.472C132.306 118.012 134.212 120.267 135.606 123.237C137.036 126.17 137.751 129.745 137.751 133.962C137.751 138.179 137.036 141.772 135.606 144.742C134.212 147.675 132.306 149.912 129.886 151.452C127.466 152.992 124.716 153.762 121.636 153.762ZM121.636 147.547C123.432 147.547 124.991 147.07 126.311 146.117C127.631 145.127 128.657 143.624 129.391 141.607C130.161 139.59 130.546 137.042 130.546 133.962C130.546 130.845 130.161 128.297 129.391 126.317C128.657 124.3 127.631 122.815 126.311 121.862C124.991 120.872 123.432 120.377 121.636 120.377C119.912 120.377 118.372 120.872 117.016 121.862C115.696 122.815 114.651 124.3 113.881 126.317C113.147 128.297 112.781 130.845 112.781 133.962C112.781 137.042 113.147 139.59 113.881 141.607C114.651 143.624 115.696 145.127 117.016 146.117C118.372 147.07 119.912 147.547 121.636 147.547ZM147.973 153.212L174.263 114.712H179.653L153.363 153.212H147.973ZM151.163 135.447C149.366 135.447 147.771 135.007 146.378 134.127C144.984 133.247 143.903 132.019 143.133 130.442C142.363 128.865 141.978 127.014 141.978 124.887C141.978 122.76 142.363 120.909 143.133 119.332C143.903 117.755 144.984 116.527 146.378 115.647C147.771 114.767 149.366 114.327 151.163 114.327C153.033 114.327 154.646 114.767 156.003 115.647C157.396 116.527 158.478 117.755 159.248 119.332C160.018 120.909 160.403 122.76 160.403 124.887C160.403 127.014 160.018 128.865 159.248 130.442C158.478 132.019 157.396 133.247 156.003 134.127C154.646 135.007 153.033 135.447 151.163 135.447ZM151.218 131.597C152.684 131.597 153.821 131.029 154.628 129.892C155.471 128.719 155.893 127.05 155.893 124.887C155.893 122.724 155.471 121.074 154.628 119.937C153.821 118.764 152.684 118.177 151.218 118.177C149.751 118.177 148.578 118.764 147.698 119.937C146.854 121.11 146.433 122.76 146.433 124.887C146.433 127.014 146.854 128.664 147.698 129.837C148.578 131.01 149.751 131.597 151.218 131.597ZM176.408 153.597C174.611 153.597 173.016 153.157 171.623 152.277C170.229 151.397 169.148 150.169 168.378 148.592C167.608 147.015 167.223 145.164 167.223 143.037C167.223 140.91 167.608 139.059 168.378 137.482C169.148 135.905 170.229 134.677 171.623 133.797C173.016 132.917 174.611 132.477 176.408 132.477C178.278 132.477 179.891 132.917 181.248 133.797C182.641 134.677 183.723 135.905 184.493 137.482C185.263 139.059 185.648 140.91 185.648 143.037C185.648 145.164 185.263 147.015 184.493 148.592C183.723 150.169 182.641 151.397 181.248 152.277C179.891 153.157 178.278 153.597 176.408 153.597ZM176.408 149.747C177.874 149.747 179.029 149.16 179.873 147.987C180.716 146.814 181.138 145.164 181.138 143.037C181.138 140.91 180.716 139.26 179.873 138.087C179.029 136.914 177.874 136.327 176.408 136.327C174.978 136.327 173.823 136.914 172.943 138.087C172.099 139.224 171.678 140.874 171.678 143.037C171.678 145.2 172.099 146.869 172.943 148.042C173.823 149.179 174.978 149.747 176.408 149.747ZM201.866 146.337V121.587H207.751V146.337H201.866ZM192.131 136.712V131.212H217.486V136.712H192.131Z" fill="#374B3C"/>
<path d="M64.9337 179.212V168.012H67.0137V179.212H64.9337ZM80.6351 170.572C81.3177 170.572 81.9204 170.705 82.4431 170.972C82.9764 171.239 83.3924 171.649 83.6911 172.204C83.9897 172.748 84.1391 173.452 84.1391 174.316V179.212H82.1391V174.572C82.1391 173.815 81.9737 173.249 81.6431 172.876C81.3124 172.503 80.8377 172.316 80.2191 172.316C79.7817 172.316 79.3924 172.412 79.0511 172.604C78.7204 172.796 78.4591 173.079 78.2671 173.452C78.0857 173.825 77.9951 174.3 77.9951 174.876V179.212H75.9951V174.572C75.9951 173.815 75.8297 173.249 75.4991 172.876C75.1684 172.503 74.6937 172.316 74.0751 172.316C73.6377 172.316 73.2484 172.412 72.9071 172.604C72.5764 172.796 72.3151 173.079 72.1231 173.452C71.9417 173.825 71.8511 174.3 71.8511 174.876V179.212H69.8511V170.668H71.7551V172.94L71.4191 172.268C71.7071 171.713 72.1231 171.292 72.6671 171.004C73.2217 170.716 73.8511 170.572 74.5551 170.572C75.3551 170.572 76.0484 170.769 76.6351 171.164C77.2324 171.559 77.6271 172.156 77.8191 172.956L77.0351 172.684C77.3124 172.044 77.7711 171.532 78.4111 171.148C79.0511 170.764 79.7924 170.572 80.6351 170.572ZM91.4308 179.324C90.7375 179.324 90.1028 179.164 89.5268 178.844C88.9615 178.524 88.5081 178.044 88.1668 177.404C87.8361 176.753 87.6708 175.932 87.6708 174.94C87.6708 173.937 87.8308 173.116 88.1508 172.476C88.4815 171.836 88.9295 171.361 89.4948 171.052C90.0601 170.732 90.7055 170.572 91.4308 170.572C92.2735 170.572 93.0148 170.753 93.6548 171.116C94.3055 171.479 94.8175 171.985 95.1908 172.636C95.5748 173.287 95.7668 174.055 95.7668 174.94C95.7668 175.825 95.5748 176.599 95.1908 177.26C94.8175 177.911 94.3055 178.417 93.6548 178.78C93.0148 179.143 92.2735 179.324 91.4308 179.324ZM86.6948 182.316V170.668H88.5988V172.684L88.5348 174.956L88.6948 177.228V182.316H86.6948ZM91.2068 177.612C91.6868 177.612 92.1135 177.505 92.4868 177.292C92.8708 177.079 93.1748 176.769 93.3988 176.364C93.6228 175.959 93.7348 175.484 93.7348 174.94C93.7348 174.385 93.6228 173.911 93.3988 173.516C93.1748 173.111 92.8708 172.801 92.4868 172.588C92.1135 172.375 91.6868 172.268 91.2068 172.268C90.7268 172.268 90.2948 172.375 89.9108 172.588C89.5268 172.801 89.2228 173.111 88.9988 173.516C88.7748 173.911 88.6628 174.385 88.6628 174.94C88.6628 175.484 88.7748 175.959 88.9988 176.364C89.2228 176.769 89.5268 177.079 89.9108 177.292C90.2948 177.505 90.7268 177.612 91.2068 177.612ZM97.6636 179.212V170.668H99.5676V173.02L99.3436 172.332C99.5996 171.756 99.9996 171.319 100.544 171.02C101.098 170.721 101.786 170.572 102.608 170.572V172.476C102.522 172.455 102.442 172.444 102.368 172.444C102.293 172.433 102.218 172.428 102.144 172.428C101.386 172.428 100.784 172.652 100.336 173.1C99.8876 173.537 99.6636 174.193 99.6636 175.068V179.212H97.6636ZM108.066 179.324C107.191 179.324 106.413 179.137 105.73 178.764C105.047 178.38 104.509 177.857 104.114 177.196C103.719 176.535 103.522 175.783 103.522 174.94C103.522 174.087 103.719 173.335 104.114 172.684C104.509 172.023 105.047 171.505 105.73 171.132C106.413 170.759 107.191 170.572 108.066 170.572C108.951 170.572 109.735 170.759 110.418 171.132C111.111 171.505 111.65 172.017 112.034 172.668C112.429 173.319 112.626 174.076 112.626 174.94C112.626 175.783 112.429 176.535 112.034 177.196C111.65 177.857 111.111 178.38 110.418 178.764C109.735 179.137 108.951 179.324 108.066 179.324ZM108.066 177.612C108.557 177.612 108.994 177.505 109.378 177.292C109.762 177.079 110.061 176.769 110.274 176.364C110.498 175.959 110.61 175.484 110.61 174.94C110.61 174.385 110.498 173.911 110.274 173.516C110.061 173.111 109.762 172.801 109.378 172.588C108.994 172.375 108.562 172.268 108.082 172.268C107.591 172.268 107.154 172.375 106.77 172.588C106.397 172.801 106.098 173.111 105.874 173.516C105.65 173.911 105.538 174.385 105.538 174.94C105.538 175.484 105.65 175.959 105.874 176.364C106.098 176.769 106.397 177.079 106.77 177.292C107.154 177.505 107.586 177.612 108.066 177.612ZM116.576 179.212L112.912 170.668H114.992L118.144 178.204H117.12L120.384 170.668H122.304L118.64 179.212H116.576ZM127.336 179.324C126.386 179.324 125.554 179.137 124.84 178.764C124.136 178.38 123.586 177.857 123.192 177.196C122.808 176.535 122.616 175.783 122.616 174.94C122.616 174.087 122.802 173.335 123.176 172.684C123.56 172.023 124.082 171.505 124.744 171.132C125.416 170.759 126.178 170.572 127.032 170.572C127.864 170.572 128.605 170.753 129.256 171.116C129.906 171.479 130.418 171.991 130.792 172.652C131.165 173.313 131.352 174.092 131.352 174.988C131.352 175.073 131.346 175.169 131.336 175.276C131.336 175.383 131.33 175.484 131.32 175.58H124.2V174.252H130.264L129.48 174.668C129.49 174.177 129.389 173.745 129.176 173.372C128.962 172.999 128.669 172.705 128.296 172.492C127.933 172.279 127.512 172.172 127.032 172.172C126.541 172.172 126.109 172.279 125.736 172.492C125.373 172.705 125.085 173.004 124.872 173.388C124.669 173.761 124.568 174.204 124.568 174.716V175.036C124.568 175.548 124.685 176.001 124.92 176.396C125.154 176.791 125.485 177.095 125.912 177.308C126.338 177.521 126.829 177.628 127.384 177.628C127.864 177.628 128.296 177.553 128.68 177.404C129.064 177.255 129.405 177.02 129.704 176.7L130.776 177.932C130.392 178.38 129.906 178.727 129.32 178.972C128.744 179.207 128.082 179.324 127.336 179.324ZM136.889 179.324C136.068 179.324 135.326 179.143 134.665 178.78C134.014 178.407 133.502 177.895 133.129 177.244C132.756 176.593 132.569 175.825 132.569 174.94C132.569 174.055 132.756 173.287 133.129 172.636C133.502 171.985 134.014 171.479 134.665 171.116C135.326 170.753 136.068 170.572 136.889 170.572C137.604 170.572 138.244 170.732 138.809 171.052C139.374 171.361 139.822 171.836 140.153 172.476C140.484 173.116 140.649 173.937 140.649 174.94C140.649 175.932 140.489 176.753 140.169 177.404C139.849 178.044 139.406 178.524 138.841 178.844C138.276 179.164 137.625 179.324 136.889 179.324ZM137.129 177.612C137.609 177.612 138.036 177.505 138.409 177.292C138.793 177.079 139.097 176.769 139.321 176.364C139.556 175.959 139.673 175.484 139.673 174.94C139.673 174.385 139.556 173.911 139.321 173.516C139.097 173.111 138.793 172.801 138.409 172.588C138.036 172.375 137.609 172.268 137.129 172.268C136.649 172.268 136.217 172.375 135.833 172.588C135.46 172.801 135.156 173.111 134.921 173.516C134.697 173.911 134.585 174.385 134.585 174.94C134.585 175.484 134.697 175.959 134.921 176.364C135.156 176.769 135.46 177.079 135.833 177.292C136.217 177.505 136.649 177.612 137.129 177.612ZM139.721 179.212V177.196L139.801 174.924L139.641 172.652V167.34H141.625V179.212H139.721ZM154.055 179.372C153.202 179.372 152.407 179.233 151.671 178.956C150.946 178.668 150.311 178.268 149.767 177.756C149.234 177.233 148.818 176.62 148.519 175.916C148.221 175.212 148.071 174.444 148.071 173.612C148.071 172.78 148.221 172.012 148.519 171.308C148.818 170.604 149.239 169.996 149.783 169.484C150.327 168.961 150.962 168.561 151.687 168.284C152.413 167.996 153.207 167.852 154.071 167.852C154.989 167.852 155.826 168.012 156.583 168.332C157.341 168.641 157.981 169.105 158.503 169.724L157.159 170.988C156.754 170.551 156.301 170.225 155.799 170.012C155.298 169.788 154.754 169.676 154.167 169.676C153.581 169.676 153.042 169.772 152.551 169.964C152.071 170.156 151.65 170.428 151.287 170.78C150.935 171.132 150.658 171.548 150.455 172.028C150.263 172.508 150.167 173.036 150.167 173.612C150.167 174.188 150.263 174.716 150.455 175.196C150.658 175.676 150.935 176.092 151.287 176.444C151.65 176.796 152.071 177.068 152.551 177.26C153.042 177.452 153.581 177.548 154.167 177.548C154.754 177.548 155.298 177.441 155.799 177.228C156.301 177.004 156.754 176.668 157.159 176.22L158.503 177.5C157.981 178.108 157.341 178.572 156.583 178.892C155.826 179.212 154.983 179.372 154.055 179.372ZM163.816 179.324C162.941 179.324 162.163 179.137 161.48 178.764C160.797 178.38 160.259 177.857 159.864 177.196C159.469 176.535 159.272 175.783 159.272 174.94C159.272 174.087 159.469 173.335 159.864 172.684C160.259 172.023 160.797 171.505 161.48 171.132C162.163 170.759 162.941 170.572 163.816 170.572C164.701 170.572 165.485 170.759 166.168 171.132C166.861 171.505 167.4 172.017 167.784 172.668C168.179 173.319 168.376 174.076 168.376 174.94C168.376 175.783 168.179 176.535 167.784 177.196C167.4 177.857 166.861 178.38 166.168 178.764C165.485 179.137 164.701 179.324 163.816 179.324ZM163.816 177.612C164.307 177.612 164.744 177.505 165.128 177.292C165.512 177.079 165.811 176.769 166.024 176.364C166.248 175.959 166.36 175.484 166.36 174.94C166.36 174.385 166.248 173.911 166.024 173.516C165.811 173.111 165.512 172.801 165.128 172.588C164.744 172.375 164.312 172.268 163.832 172.268C163.341 172.268 162.904 172.375 162.52 172.588C162.147 172.801 161.848 173.111 161.624 173.516C161.4 173.911 161.288 174.385 161.288 174.94C161.288 175.484 161.4 175.959 161.624 176.364C161.848 176.769 162.147 177.079 162.52 177.292C162.904 177.505 163.336 177.612 163.816 177.612ZM174.161 182.428C173.371 182.428 172.598 182.321 171.841 182.108C171.094 181.905 170.481 181.607 170.001 181.212L170.897 179.708C171.27 180.017 171.739 180.263 172.305 180.444C172.881 180.636 173.462 180.732 174.049 180.732C174.987 180.732 175.675 180.513 176.113 180.076C176.55 179.649 176.769 179.004 176.769 178.14V176.62L176.929 174.684L176.865 172.748V170.668H178.769V177.916C178.769 179.463 178.374 180.599 177.585 181.324C176.795 182.06 175.654 182.428 174.161 182.428ZM173.905 178.828C173.094 178.828 172.358 178.657 171.697 178.316C171.046 177.964 170.529 177.479 170.145 176.86C169.771 176.241 169.585 175.516 169.585 174.684C169.585 173.863 169.771 173.143 170.145 172.524C170.529 171.905 171.046 171.425 171.697 171.084C172.358 170.743 173.094 170.572 173.905 170.572C174.63 170.572 175.281 170.716 175.857 171.004C176.433 171.292 176.891 171.74 177.233 172.348C177.585 172.956 177.761 173.735 177.761 174.684C177.761 175.633 177.585 176.417 177.233 177.036C176.891 177.644 176.433 178.097 175.857 178.396C175.281 178.684 174.63 178.828 173.905 178.828ZM174.209 177.132C174.71 177.132 175.158 177.031 175.553 176.828C175.947 176.615 176.251 176.327 176.465 175.964C176.689 175.591 176.801 175.164 176.801 174.684C176.801 174.204 176.689 173.783 176.465 173.42C176.251 173.047 175.947 172.764 175.553 172.572C175.158 172.369 174.71 172.268 174.209 172.268C173.707 172.268 173.254 172.369 172.849 172.572C172.454 172.764 172.145 173.047 171.921 173.42C171.707 173.783 171.601 174.204 171.601 174.684C171.601 175.164 171.707 175.591 171.921 175.964C172.145 176.327 172.454 176.615 172.849 176.828C173.254 177.031 173.707 177.132 174.209 177.132ZM186.246 170.572C186.929 170.572 187.537 170.705 188.07 170.972C188.614 171.239 189.041 171.649 189.35 172.204C189.659 172.748 189.814 173.452 189.814 174.316V179.212H187.814V174.572C187.814 173.815 187.633 173.249 187.27 172.876C186.918 172.503 186.422 172.316 185.782 172.316C185.313 172.316 184.897 172.412 184.534 172.604C184.171 172.796 183.889 173.084 183.686 173.468C183.494 173.841 183.398 174.316 183.398 174.892V179.212H181.398V170.668H183.302V172.972L182.966 172.268C183.265 171.724 183.697 171.308 184.262 171.02C184.838 170.721 185.499 170.572 186.246 170.572ZM192.351 179.212V170.668H194.351V179.212H192.351ZM193.359 169.26C192.986 169.26 192.676 169.143 192.431 168.908C192.196 168.673 192.079 168.391 192.079 168.06C192.079 167.719 192.196 167.436 192.431 167.212C192.676 166.977 192.986 166.86 193.359 166.86C193.732 166.86 194.036 166.972 194.271 167.196C194.516 167.409 194.639 167.681 194.639 168.012C194.639 168.364 194.522 168.663 194.287 168.908C194.052 169.143 193.743 169.26 193.359 169.26ZM200.192 179.324C199.253 179.324 198.528 179.084 198.016 178.604C197.504 178.113 197.248 177.393 197.248 176.444V168.78H199.248V176.396C199.248 176.801 199.349 177.116 199.552 177.34C199.765 177.564 200.059 177.676 200.432 177.676C200.88 177.676 201.253 177.559 201.552 177.324L202.112 178.748C201.877 178.94 201.589 179.084 201.248 179.18C200.907 179.276 200.555 179.324 200.192 179.324ZM195.84 172.332V170.732H201.536V172.332H195.84ZM203.757 179.212V170.668H205.757V179.212H203.757ZM204.765 169.26C204.392 169.26 204.083 169.143 203.837 168.908C203.603 168.673 203.485 168.391 203.485 168.06C203.485 167.719 203.603 167.436 203.837 167.212C204.083 166.977 204.392 166.86 204.765 166.86C205.139 166.86 205.443 166.972 205.677 167.196C205.923 167.409 206.045 167.681 206.045 168.012C206.045 168.364 205.928 168.663 205.693 168.908C205.459 169.143 205.149 169.26 204.765 169.26ZM212.222 179.324C211.348 179.324 210.569 179.137 209.886 178.764C209.204 178.38 208.665 177.857 208.27 177.196C207.876 176.535 207.678 175.783 207.678 174.94C207.678 174.087 207.876 173.335 208.27 172.684C208.665 172.023 209.204 171.505 209.886 171.132C210.569 170.759 211.348 170.572 212.222 170.572C213.108 170.572 213.892 170.759 214.574 171.132C215.268 171.505 215.806 172.017 216.19 172.668C216.585 173.319 216.782 174.076 216.782 174.94C216.782 175.783 216.585 176.535 216.19 177.196C215.806 177.857 215.268 178.38 214.574 178.764C213.892 179.137 213.108 179.324 212.222 179.324ZM212.222 177.612C212.713 177.612 213.15 177.505 213.534 177.292C213.918 177.079 214.217 176.769 214.43 176.364C214.654 175.959 214.766 175.484 214.766 174.94C214.766 174.385 214.654 173.911 214.43 173.516C214.217 173.111 213.918 172.801 213.534 172.588C213.15 172.375 212.718 172.268 212.238 172.268C211.748 172.268 211.31 172.375 210.926 172.588C210.553 172.801 210.254 173.111 210.03 173.516C209.806 173.911 209.694 174.385 209.694 174.94C209.694 175.484 209.806 175.959 210.03 176.364C210.254 176.769 210.553 177.079 210.926 177.292C211.31 177.505 211.742 177.612 212.222 177.612ZM223.543 170.572C224.225 170.572 224.833 170.705 225.367 170.972C225.911 171.239 226.337 171.649 226.647 172.204C226.956 172.748 227.111 173.452 227.111 174.316V179.212H225.111V174.572C225.111 173.815 224.929 173.249 224.567 172.876C224.215 172.503 223.719 172.316 223.079 172.316C222.609 172.316 222.193 172.412 221.831 172.604C221.468 172.796 221.185 173.084 220.983 173.468C220.791 173.841 220.695 174.316 220.695 174.892V179.212H218.695V170.668H220.599V172.972L220.263 172.268C220.561 171.724 220.993 171.308 221.559 171.02C222.135 170.721 222.796 170.572 223.543 170.572Z" fill="#374B3C"/>
<path d="M28.2513 117.522C22.6087 116.178 19.0829 110.497 20.8722 104.98C27.2405 85.3432 38.1602 67.4313 52.7992 52.7371C69.9153 35.5564 91.4491 23.4435 115.02 17.7377C138.591 12.0319 163.28 12.9554 186.359 20.4061C209.437 27.8567 230.006 41.5444 245.791 59.9557C261.576 78.367 271.962 100.785 275.801 124.731C279.64 148.676 276.782 173.217 267.543 195.64C258.305 218.063 243.046 237.495 223.453 251.786C206.695 264.01 187.326 272.066 166.947 275.361C161.221 276.286 156.145 271.934 155.679 266.153L155.254 260.875C154.788 255.093 159.113 250.082 164.819 249.042C180.363 246.209 195.117 239.902 207.954 230.538C223.628 219.105 235.836 203.56 243.227 185.621C250.617 167.683 252.903 148.05 249.832 128.894C246.761 109.737 238.452 91.8029 225.825 77.0738C213.197 62.3448 196.742 51.3947 178.279 45.4341C159.816 39.4736 140.064 38.7348 121.208 43.2994C102.351 47.8641 85.124 57.5544 71.4311 71.2989C60.2166 82.5557 51.7305 96.1729 46.5574 111.102C44.6583 116.582 39.0451 120.092 33.4025 118.748L28.2513 117.522Z" fill="#374B3C"/>
<path d="M266.923 145.428C272.724 145.428 277.469 150.137 277.007 155.919C275.36 176.497 268.886 196.451 258.048 214.136C245.377 234.814 227.234 251.585 205.626 262.595C184.017 273.605 159.785 278.425 135.608 276.522C111.432 274.62 88.2519 266.068 68.632 251.813C49.0121 237.559 33.7163 218.156 24.4356 195.751C15.155 173.345 12.251 148.81 16.0448 124.857C19.8385 100.904 30.1823 78.4663 45.9324 60.0253C59.4031 44.2531 76.3798 31.9297 95.4415 24.0045C100.797 21.7777 106.743 24.8357 108.535 30.3521L110.172 35.3882C111.964 40.9047 108.917 46.7816 103.607 49.1148C89.1419 55.4706 76.2506 65.0232 65.9311 77.1058C53.331 91.8586 45.056 109.808 42.021 128.971C38.9859 148.133 41.3091 167.762 48.7337 185.686C56.1582 203.61 68.3948 219.133 84.0908 230.536C99.7867 241.94 118.33 248.781 137.672 250.303C157.013 251.826 176.399 247.97 193.686 239.162C210.972 230.354 225.486 216.937 235.624 200.395C243.926 186.846 249.027 171.634 250.602 155.913C251.18 150.141 255.828 145.428 261.628 145.428H266.923Z" fill="#A5C686"/>
</svg>
