<svg width="293" height="292" viewBox="0 0 293 292" fill="none" xmlns="http://www.w3.org/2000/svg">
<rect x="0.810547" width="291.807" height="291.805" rx="24" fill="#F6F9F2"/>
<rect x="14.7148" y="19.9033" width="81.3333" height="251" rx="10" fill="#A5C686"/>
<rect x="106.049" y="180.903" width="81.3333" height="90" rx="10" fill="#374B3C"/>
<rect x="197.381" y="180.903" width="81.3333" height="90" rx="10" fill="#374B3C"/>
<path d="M224.09 115.953C221.377 115.953 218.718 115.568 216.115 114.798C213.548 113.992 211.385 112.892 209.625 111.498L212.65 105.943C214.043 107.08 215.73 107.997 217.71 108.693C219.727 109.39 221.817 109.738 223.98 109.738C226.51 109.738 228.49 109.207 229.92 108.143C231.387 107.08 232.12 105.65 232.12 103.853C232.12 102.643 231.808 101.58 231.185 100.663C230.598 99.7467 229.535 99.05 227.995 98.5733C226.492 98.0967 224.42 97.8583 221.78 97.8583H212.485L214.465 76.9033H237.07V82.8983H217.105L220.845 79.4883L219.36 95.1633L215.62 91.8083H223.375C227.188 91.8083 230.25 92.3217 232.56 93.3483C234.907 94.3383 236.612 95.7317 237.675 97.5283C238.775 99.2883 239.325 101.305 239.325 103.578C239.325 105.815 238.775 107.868 237.675 109.738C236.575 111.608 234.888 113.112 232.615 114.248C230.378 115.385 227.537 115.953 224.09 115.953ZM240.88 115.403L257.105 93.0733V98.4633L241.65 76.9033H249.735L261.23 92.8533L257.93 92.9083L269.315 76.9033H277.07L261.725 98.0783V92.9083L278.06 115.403H269.81L257.71 98.4633H260.955L249.02 115.403H240.88Z" fill="#374B3C"/>
<path d="M123.691 141.563C122.816 141.563 121.979 141.441 121.179 141.195C120.379 140.939 119.744 140.614 119.275 140.219L119.995 138.603C120.443 138.955 120.998 139.249 121.659 139.483C122.32 139.718 122.998 139.835 123.691 139.835C124.278 139.835 124.752 139.771 125.115 139.643C125.478 139.515 125.744 139.345 125.915 139.131C126.086 138.907 126.171 138.657 126.171 138.379C126.171 138.038 126.048 137.766 125.803 137.563C125.558 137.35 125.238 137.185 124.843 137.067C124.459 136.939 124.027 136.822 123.547 136.715C123.078 136.609 122.603 136.486 122.123 136.347C121.654 136.198 121.222 136.011 120.827 135.787C120.443 135.553 120.128 135.243 119.883 134.859C119.638 134.475 119.515 133.985 119.515 133.387C119.515 132.779 119.675 132.225 119.995 131.723C120.326 131.211 120.822 130.806 121.483 130.507C122.155 130.198 123.003 130.043 124.027 130.043C124.699 130.043 125.366 130.129 126.027 130.299C126.688 130.47 127.264 130.715 127.755 131.035L127.099 132.651C126.598 132.353 126.08 132.134 125.547 131.995C125.014 131.846 124.502 131.771 124.011 131.771C123.435 131.771 122.966 131.841 122.603 131.979C122.251 132.118 121.99 132.299 121.819 132.523C121.659 132.747 121.579 133.003 121.579 133.291C121.579 133.633 121.696 133.91 121.931 134.123C122.176 134.326 122.491 134.486 122.875 134.603C123.27 134.721 123.707 134.838 124.187 134.955C124.667 135.062 125.142 135.185 125.611 135.323C126.091 135.462 126.523 135.643 126.907 135.867C127.302 136.091 127.616 136.395 127.851 136.779C128.096 137.163 128.219 137.649 128.219 138.235C128.219 138.833 128.054 139.387 127.723 139.899C127.403 140.401 126.907 140.806 126.235 141.115C125.563 141.414 124.715 141.563 123.691 141.563ZM133.305 141.515C132.367 141.515 131.641 141.275 131.129 140.795C130.617 140.305 130.361 139.585 130.361 138.635V130.971H132.361V138.587C132.361 138.993 132.463 139.307 132.665 139.531C132.879 139.755 133.172 139.867 133.545 139.867C133.993 139.867 134.367 139.75 134.665 139.515L135.225 140.939C134.991 141.131 134.703 141.275 134.361 141.371C134.02 141.467 133.668 141.515 133.305 141.515ZM128.953 134.523V132.923H134.649V134.523H128.953ZM136.871 141.403V132.859H138.775V135.211L138.551 134.523C138.807 133.947 139.207 133.51 139.751 133.211C140.305 132.913 140.993 132.763 141.815 132.763V134.667C141.729 134.646 141.649 134.635 141.575 134.635C141.5 134.625 141.425 134.619 141.351 134.619C140.593 134.619 139.991 134.843 139.543 135.291C139.095 135.729 138.871 136.385 138.871 137.259V141.403H136.871ZM147.273 141.515C146.398 141.515 145.62 141.329 144.937 140.955C144.254 140.571 143.716 140.049 143.321 139.387C142.926 138.726 142.729 137.974 142.729 137.131C142.729 136.278 142.926 135.526 143.321 134.875C143.716 134.214 144.254 133.697 144.937 133.323C145.62 132.95 146.398 132.763 147.273 132.763C148.158 132.763 148.942 132.95 149.625 133.323C150.318 133.697 150.857 134.209 151.241 134.859C151.636 135.51 151.833 136.267 151.833 137.131C151.833 137.974 151.636 138.726 151.241 139.387C150.857 140.049 150.318 140.571 149.625 140.955C148.942 141.329 148.158 141.515 147.273 141.515ZM147.273 139.803C147.764 139.803 148.201 139.697 148.585 139.483C148.969 139.27 149.268 138.961 149.481 138.555C149.705 138.15 149.817 137.675 149.817 137.131C149.817 136.577 149.705 136.102 149.481 135.707C149.268 135.302 148.969 134.993 148.585 134.779C148.201 134.566 147.769 134.459 147.289 134.459C146.798 134.459 146.361 134.566 145.977 134.779C145.604 134.993 145.305 135.302 145.081 135.707C144.857 136.102 144.745 136.577 144.745 137.131C144.745 137.675 144.857 138.15 145.081 138.555C145.305 138.961 145.604 139.27 145.977 139.483C146.361 139.697 146.793 139.803 147.273 139.803ZM158.594 132.763C159.276 132.763 159.884 132.897 160.418 133.163C160.962 133.43 161.388 133.841 161.698 134.395C162.007 134.939 162.162 135.643 162.162 136.507V141.403H160.162V136.763C160.162 136.006 159.98 135.441 159.618 135.067C159.266 134.694 158.77 134.507 158.13 134.507C157.66 134.507 157.244 134.603 156.882 134.795C156.519 134.987 156.236 135.275 156.034 135.659C155.842 136.033 155.746 136.507 155.746 137.083V141.403H153.746V132.859H155.65V135.163L155.314 134.459C155.612 133.915 156.044 133.499 156.61 133.211C157.186 132.913 157.847 132.763 158.594 132.763ZM168.586 144.619C167.797 144.619 167.024 144.513 166.266 144.299C165.52 144.097 164.906 143.798 164.426 143.403L165.322 141.899C165.696 142.209 166.165 142.454 166.73 142.635C167.306 142.827 167.888 142.923 168.474 142.923C169.413 142.923 170.101 142.705 170.538 142.267C170.976 141.841 171.194 141.195 171.194 140.331V138.811L171.354 136.875L171.29 134.939V132.859H173.194V140.107C173.194 141.654 172.8 142.79 172.01 143.515C171.221 144.251 170.08 144.619 168.586 144.619ZM168.33 141.019C167.52 141.019 166.784 140.849 166.122 140.507C165.472 140.155 164.954 139.67 164.57 139.051C164.197 138.433 164.01 137.707 164.01 136.875C164.01 136.054 164.197 135.334 164.57 134.715C164.954 134.097 165.472 133.617 166.122 133.275C166.784 132.934 167.52 132.763 168.33 132.763C169.056 132.763 169.706 132.907 170.282 133.195C170.858 133.483 171.317 133.931 171.658 134.539C172.01 135.147 172.186 135.926 172.186 136.875C172.186 137.825 172.01 138.609 171.658 139.227C171.317 139.835 170.858 140.289 170.282 140.587C169.706 140.875 169.056 141.019 168.33 141.019ZM168.634 139.323C169.136 139.323 169.584 139.222 169.978 139.019C170.373 138.806 170.677 138.518 170.89 138.155C171.114 137.782 171.226 137.355 171.226 136.875C171.226 136.395 171.114 135.974 170.89 135.611C170.677 135.238 170.373 134.955 169.978 134.763C169.584 134.561 169.136 134.459 168.634 134.459C168.133 134.459 167.68 134.561 167.274 134.763C166.88 134.955 166.57 135.238 166.346 135.611C166.133 135.974 166.026 136.395 166.026 136.875C166.026 137.355 166.133 137.782 166.346 138.155C166.57 138.518 166.88 138.806 167.274 139.019C167.68 139.222 168.133 139.323 168.634 139.323ZM179.84 141.515C178.89 141.515 178.058 141.329 177.344 140.955C176.64 140.571 176.09 140.049 175.696 139.387C175.312 138.726 175.12 137.974 175.12 137.131C175.12 136.278 175.306 135.526 175.68 134.875C176.064 134.214 176.586 133.697 177.248 133.323C177.92 132.95 178.682 132.763 179.536 132.763C180.368 132.763 181.109 132.945 181.76 133.307C182.41 133.67 182.922 134.182 183.296 134.843C183.669 135.505 183.856 136.283 183.856 137.179C183.856 137.265 183.85 137.361 183.84 137.467C183.84 137.574 183.834 137.675 183.824 137.771H176.704V136.443H182.768L181.984 136.859C181.994 136.369 181.893 135.937 181.68 135.563C181.466 135.19 181.173 134.897 180.8 134.683C180.437 134.47 180.016 134.363 179.536 134.363C179.045 134.363 178.613 134.47 178.24 134.683C177.877 134.897 177.589 135.195 177.376 135.579C177.173 135.953 177.072 136.395 177.072 136.907V137.227C177.072 137.739 177.189 138.193 177.424 138.587C177.658 138.982 177.989 139.286 178.416 139.499C178.842 139.713 179.333 139.819 179.888 139.819C180.368 139.819 180.8 139.745 181.184 139.595C181.568 139.446 181.909 139.211 182.208 138.891L183.28 140.123C182.896 140.571 182.41 140.918 181.824 141.163C181.248 141.398 180.586 141.515 179.84 141.515ZM185.777 141.403V132.859H187.681V135.211L187.457 134.523C187.713 133.947 188.113 133.51 188.657 133.211C189.212 132.913 189.9 132.763 190.721 132.763V134.667C190.636 134.646 190.556 134.635 190.481 134.635C190.406 134.625 190.332 134.619 190.257 134.619C189.5 134.619 188.897 134.843 188.449 135.291C188.001 135.729 187.777 136.385 187.777 137.259V141.403H185.777ZM197.109 141.403V130.203H199.189V141.403H197.109ZM212.811 132.763C213.494 132.763 214.096 132.897 214.619 133.163C215.152 133.43 215.568 133.841 215.867 134.395C216.166 134.939 216.315 135.643 216.315 136.507V141.403H214.315V136.763C214.315 136.006 214.15 135.441 213.819 135.067C213.488 134.694 213.014 134.507 212.395 134.507C211.958 134.507 211.568 134.603 211.227 134.795C210.896 134.987 210.635 135.27 210.443 135.643C210.262 136.017 210.171 136.491 210.171 137.067V141.403H208.171V136.763C208.171 136.006 208.006 135.441 207.675 135.067C207.344 134.694 206.87 134.507 206.251 134.507C205.814 134.507 205.424 134.603 205.083 134.795C204.752 134.987 204.491 135.27 204.299 135.643C204.118 136.017 204.027 136.491 204.027 137.067V141.403H202.027V132.859H203.931V135.131L203.595 134.459C203.883 133.905 204.299 133.483 204.843 133.195C205.398 132.907 206.027 132.763 206.731 132.763C207.531 132.763 208.224 132.961 208.811 133.355C209.408 133.75 209.803 134.347 209.995 135.147L209.211 134.875C209.488 134.235 209.947 133.723 210.587 133.339C211.227 132.955 211.968 132.763 212.811 132.763ZM229.655 132.763C230.337 132.763 230.94 132.897 231.463 133.163C231.996 133.43 232.412 133.841 232.711 134.395C233.009 134.939 233.159 135.643 233.159 136.507V141.403H231.159V136.763C231.159 136.006 230.993 135.441 230.663 135.067C230.332 134.694 229.857 134.507 229.239 134.507C228.801 134.507 228.412 134.603 228.071 134.795C227.74 134.987 227.479 135.27 227.287 135.643C227.105 136.017 227.015 136.491 227.015 137.067V141.403H225.015V136.763C225.015 136.006 224.849 135.441 224.519 135.067C224.188 134.694 223.713 134.507 223.095 134.507C222.657 134.507 222.268 134.603 221.927 134.795C221.596 134.987 221.335 135.27 221.143 135.643C220.961 136.017 220.871 136.491 220.871 137.067V141.403H218.871V132.859H220.775V135.131L220.439 134.459C220.727 133.905 221.143 133.483 221.687 133.195C222.241 132.907 222.871 132.763 223.575 132.763C224.375 132.763 225.068 132.961 225.655 133.355C226.252 133.75 226.647 134.347 226.839 135.147L226.055 134.875C226.332 134.235 226.791 133.723 227.431 133.339C228.071 132.955 228.812 132.763 229.655 132.763ZM239.33 141.515C238.605 141.515 237.965 141.382 237.41 141.115C236.856 140.838 236.424 140.422 236.114 139.867C235.805 139.302 235.65 138.593 235.65 137.739V132.859H237.65V137.467C237.65 138.235 237.821 138.811 238.162 139.195C238.514 139.569 239.01 139.755 239.65 139.755C240.12 139.755 240.525 139.659 240.866 139.467C241.218 139.275 241.49 138.987 241.682 138.603C241.885 138.219 241.986 137.745 241.986 137.179V132.859H243.986V141.403H242.082V139.099L242.418 139.803C242.13 140.358 241.709 140.785 241.154 141.083C240.6 141.371 239.992 141.515 239.33 141.515ZM251.453 132.763C252.136 132.763 252.744 132.897 253.277 133.163C253.821 133.43 254.248 133.841 254.557 134.395C254.866 134.939 255.021 135.643 255.021 136.507V141.403H253.021V136.763C253.021 136.006 252.84 135.441 252.477 135.067C252.125 134.694 251.629 134.507 250.989 134.507C250.52 134.507 250.104 134.603 249.741 134.795C249.378 134.987 249.096 135.275 248.893 135.659C248.701 136.033 248.605 136.507 248.605 137.083V141.403H246.605V132.859H248.509V135.163L248.173 134.459C248.472 133.915 248.904 133.499 249.469 133.211C250.045 132.913 250.706 132.763 251.453 132.763ZM257.558 141.403V132.859H259.558V141.403H257.558ZM258.566 131.451C258.193 131.451 257.883 131.334 257.638 131.099C257.403 130.865 257.286 130.582 257.286 130.251C257.286 129.91 257.403 129.627 257.638 129.403C257.883 129.169 258.193 129.051 258.566 129.051C258.939 129.051 259.243 129.163 259.478 129.387C259.723 129.601 259.846 129.873 259.846 130.203C259.846 130.555 259.729 130.854 259.494 131.099C259.259 131.334 258.95 131.451 258.566 131.451ZM265.399 141.515C264.46 141.515 263.735 141.275 263.223 140.795C262.711 140.305 262.455 139.585 262.455 138.635V130.971H264.455V138.587C264.455 138.993 264.556 139.307 264.759 139.531C264.972 139.755 265.266 139.867 265.639 139.867C266.087 139.867 266.46 139.75 266.759 139.515L267.319 140.939C267.084 141.131 266.796 141.275 266.455 141.371C266.114 141.467 265.762 141.515 265.399 141.515ZM261.047 134.523V132.923H266.743V134.523H261.047ZM269.512 144.619C269.096 144.619 268.68 144.55 268.264 144.411C267.848 144.273 267.501 144.081 267.224 143.835L268.024 142.363C268.227 142.545 268.456 142.689 268.712 142.795C268.968 142.902 269.229 142.955 269.496 142.955C269.859 142.955 270.152 142.865 270.376 142.683C270.6 142.502 270.808 142.198 271 141.771L271.496 140.651L271.656 140.411L274.888 132.859H276.808L272.808 142.091C272.541 142.731 272.243 143.238 271.912 143.611C271.592 143.985 271.229 144.246 270.824 144.395C270.429 144.545 269.992 144.619 269.512 144.619ZM271.272 141.707L267.416 132.859H269.496L272.632 140.235L271.272 141.707Z" fill="#374B3C"/>
</svg>
