<svg width="292" height="292" viewBox="0 0 292 292" fill="none" xmlns="http://www.w3.org/2000/svg">
<rect width="291.81" height="291.8" rx="145.9" fill="#F6F9F2"/>
<path d="M28.2513 118.024C22.6087 116.68 19.0829 110.999 20.8722 105.482C27.2405 85.8451 38.1602 67.9333 52.7992 53.239C69.9153 36.0583 91.4491 23.9455 115.02 18.2397C138.591 12.5339 163.28 13.4573 186.359 20.908C209.437 28.3587 230.006 42.0463 245.791 60.4577C261.576 78.869 271.962 101.287 275.801 125.233C279.64 149.178 276.782 173.719 267.543 196.142C258.305 218.565 243.046 237.997 223.453 252.288C206.695 264.512 187.326 272.568 166.947 275.863C161.221 276.788 156.145 272.436 155.679 266.655L155.254 261.377C154.788 255.595 159.113 250.584 164.819 249.544C180.363 246.711 195.117 240.404 207.954 231.04C223.628 219.607 235.836 204.062 243.227 186.123C250.617 168.185 252.903 148.552 249.832 129.396C246.761 110.239 238.452 92.3048 225.825 77.5758C213.197 62.8467 196.742 51.8966 178.279 45.9361C159.816 39.9755 140.064 39.2367 121.208 43.8014C102.351 48.366 85.124 58.0563 71.4311 71.8009C60.2166 83.0577 51.7305 96.6748 46.5574 111.604C44.6583 117.084 39.0451 120.593 33.4025 119.25L28.2513 118.024Z" fill="#374B3C"/>
<path d="M266.923 145.93C272.724 145.93 277.469 150.639 277.007 156.421C275.636 173.542 270.922 190.265 263.093 205.629C253.672 224.12 240.008 240.118 223.22 252.315C206.431 264.513 186.993 272.564 166.497 275.811C146 279.057 125.026 277.406 105.29 270.994C85.5537 264.581 67.6152 253.588 52.9412 238.914C38.2673 224.24 27.2746 206.302 20.8618 186.565C14.4491 166.829 12.7984 145.855 16.0448 125.359C18.7423 108.327 24.7574 92.0269 33.7125 77.37C36.7365 72.4205 43.3441 71.3997 48.0366 74.8091L52.3206 77.9215C57.0131 81.3309 58.0026 87.8762 55.078 92.8852C48.5074 104.138 44.069 116.542 42.021 129.473C39.4239 145.87 40.7444 162.649 45.8746 178.438C51.0048 194.227 59.799 208.578 71.5381 220.317C83.2773 232.056 97.6281 240.851 113.417 245.981C129.206 251.111 145.985 252.432 162.383 249.835C178.78 247.237 194.33 240.796 207.761 231.038C221.192 221.28 232.123 208.482 239.66 193.689C245.603 182.025 249.303 169.381 250.602 156.415C251.18 150.643 255.828 145.93 261.628 145.93H266.923Z" fill="#A5C686"/>
<path d="M88.8272 153.499C85.3439 153.499 82.3555 152.766 79.8622 151.299C77.3689 149.796 75.4622 147.633 74.1422 144.809C72.8222 141.986 72.1622 138.503 72.1622 134.359C72.1622 129.959 72.9505 126.238 74.5272 123.194C76.1405 120.151 78.3589 117.841 81.1822 116.264C84.0422 114.688 87.3239 113.899 91.0272 113.899C92.9705 113.899 94.8222 114.101 96.5822 114.504C98.3789 114.908 99.9005 115.531 101.147 116.374L98.5072 121.764C97.4439 121.068 96.2889 120.591 95.0422 120.334C93.8322 120.041 92.5489 119.894 91.1922 119.894C87.5622 119.894 84.6839 121.013 82.5572 123.249C80.4305 125.486 79.3672 128.786 79.3672 133.149C79.3672 133.846 79.3855 134.671 79.4222 135.624C79.4589 136.541 79.5872 137.476 79.8072 138.429L77.6072 136.009C78.2672 134.506 79.1655 133.259 80.3022 132.269C81.4755 131.243 82.8505 130.473 84.4272 129.959C86.0405 129.446 87.7822 129.189 89.6522 129.189C92.1822 129.189 94.4372 129.684 96.4172 130.674C98.3972 131.628 99.9739 133.003 101.147 134.799C102.321 136.559 102.907 138.631 102.907 141.014C102.907 143.544 102.284 145.744 101.037 147.614C99.7905 149.484 98.1039 150.933 95.9772 151.959C93.8505 152.986 91.4672 153.499 88.8272 153.499ZM88.4422 147.889C89.9089 147.889 91.2105 147.633 92.3472 147.119C93.4839 146.569 94.3639 145.799 94.9872 144.809C95.6472 143.819 95.9772 142.664 95.9772 141.344C95.9772 139.328 95.2805 137.733 93.8872 136.559C92.4939 135.386 90.6239 134.799 88.2772 134.799C86.7372 134.799 85.3805 135.093 84.2072 135.679C83.0705 136.229 82.1539 136.999 81.4572 137.989C80.7972 138.979 80.4672 140.116 80.4672 141.399C80.4672 142.573 80.7789 143.654 81.4022 144.644C82.0255 145.634 82.9239 146.423 84.0972 147.009C85.3072 147.596 86.7555 147.889 88.4422 147.889ZM122.705 153.499C119.661 153.499 116.911 152.729 114.455 151.189C112.035 149.649 110.128 147.413 108.735 144.479C107.341 141.509 106.645 137.916 106.645 133.699C106.645 129.483 107.341 125.908 108.735 122.974C110.128 120.004 112.035 117.749 114.455 116.209C116.911 114.669 119.661 113.899 122.705 113.899C125.785 113.899 128.535 114.669 130.955 116.209C133.375 117.749 135.281 120.004 136.675 122.974C138.105 125.908 138.82 129.483 138.82 133.699C138.82 137.916 138.105 141.509 136.675 144.479C135.281 147.413 133.375 149.649 130.955 151.189C128.535 152.729 125.785 153.499 122.705 153.499ZM122.705 147.284C124.501 147.284 126.06 146.808 127.38 145.854C128.7 144.864 129.726 143.361 130.46 141.344C131.23 139.328 131.615 136.779 131.615 133.699C131.615 130.583 131.23 128.034 130.46 126.054C129.726 124.038 128.7 122.553 127.38 121.599C126.06 120.609 124.501 120.114 122.705 120.114C120.981 120.114 119.441 120.609 118.085 121.599C116.765 122.553 115.72 124.038 114.95 126.054C114.216 128.034 113.85 130.583 113.85 133.699C113.85 136.779 114.216 139.328 114.95 141.344C115.72 143.361 116.765 144.864 118.085 145.854C119.441 146.808 120.981 147.284 122.705 147.284ZM149.041 152.949L175.331 114.449H180.721L154.431 152.949H149.041ZM152.231 135.184C150.435 135.184 148.84 134.744 147.446 133.864C146.053 132.984 144.971 131.756 144.201 130.179C143.431 128.603 143.046 126.751 143.046 124.624C143.046 122.498 143.431 120.646 144.201 119.069C144.971 117.493 146.053 116.264 147.446 115.384C148.84 114.504 150.435 114.064 152.231 114.064C154.101 114.064 155.715 114.504 157.071 115.384C158.465 116.264 159.546 117.493 160.316 119.069C161.086 120.646 161.471 122.498 161.471 124.624C161.471 126.751 161.086 128.603 160.316 130.179C159.546 131.756 158.465 132.984 157.071 133.864C155.715 134.744 154.101 135.184 152.231 135.184ZM152.286 131.334C153.753 131.334 154.89 130.766 155.696 129.629C156.54 128.456 156.961 126.788 156.961 124.624C156.961 122.461 156.54 120.811 155.696 119.674C154.89 118.501 153.753 117.914 152.286 117.914C150.82 117.914 149.646 118.501 148.766 119.674C147.923 120.848 147.501 122.498 147.501 124.624C147.501 126.751 147.923 128.401 148.766 129.574C149.646 130.748 150.82 131.334 152.286 131.334ZM177.476 153.334C175.68 153.334 174.085 152.894 172.691 152.014C171.298 151.134 170.216 149.906 169.446 148.329C168.676 146.753 168.291 144.901 168.291 142.774C168.291 140.648 168.676 138.796 169.446 137.219C170.216 135.643 171.298 134.414 172.691 133.534C174.085 132.654 175.68 132.214 177.476 132.214C179.346 132.214 180.96 132.654 182.316 133.534C183.71 134.414 184.791 135.643 185.561 137.219C186.331 138.796 186.716 140.648 186.716 142.774C186.716 144.901 186.331 146.753 185.561 148.329C184.791 149.906 183.71 151.134 182.316 152.014C180.96 152.894 179.346 153.334 177.476 153.334ZM177.476 149.484C178.943 149.484 180.098 148.898 180.941 147.724C181.785 146.551 182.206 144.901 182.206 142.774C182.206 140.648 181.785 138.998 180.941 137.824C180.098 136.651 178.943 136.064 177.476 136.064C176.046 136.064 174.891 136.651 174.011 137.824C173.168 138.961 172.746 140.611 172.746 142.774C172.746 144.938 173.168 146.606 174.011 147.779C174.891 148.916 176.046 149.484 177.476 149.484ZM202.935 146.074V121.324H208.82V146.074H202.935ZM193.2 136.449V130.949H218.555V136.449H193.2Z" fill="#374B3C"/>
<path d="M61.3692 178.949V167.749H66.6172C67.9612 167.749 68.9852 168.016 69.6892 168.549C70.3932 169.072 70.7452 169.776 70.7452 170.661C70.7452 171.259 70.6066 171.771 70.3292 172.197C70.0519 172.613 69.6786 172.939 69.2092 173.173C68.7506 173.397 68.2492 173.509 67.7052 173.509L67.9932 172.933C68.6226 172.933 69.1879 173.051 69.6892 173.285C70.1906 173.509 70.5852 173.84 70.8732 174.277C71.1719 174.715 71.3212 175.259 71.3212 175.909C71.3212 176.869 70.9532 177.616 70.2172 178.149C69.4812 178.683 68.3879 178.949 66.9372 178.949H61.3692ZM63.4492 177.317H66.8092C67.5879 177.317 68.1852 177.189 68.6012 176.933C69.0172 176.677 69.2252 176.267 69.2252 175.701C69.2252 175.147 69.0172 174.741 68.6012 174.485C68.1852 174.219 67.5879 174.085 66.8092 174.085H63.2892V172.469H66.3932C67.1186 172.469 67.6732 172.341 68.0572 172.085C68.4519 171.829 68.6492 171.445 68.6492 170.933C68.6492 170.411 68.4519 170.021 68.0572 169.765C67.6732 169.509 67.1186 169.381 66.3932 169.381H63.4492V177.317ZM77.3651 179.061C76.4158 179.061 75.5838 178.875 74.8691 178.501C74.1651 178.117 73.6158 177.595 73.2211 176.933C72.8371 176.272 72.6451 175.52 72.6451 174.677C72.6451 173.824 72.8318 173.072 73.2051 172.421C73.5891 171.76 74.1118 171.243 74.7731 170.869C75.4451 170.496 76.2078 170.309 77.0611 170.309C77.8931 170.309 78.6344 170.491 79.2851 170.853C79.9358 171.216 80.4478 171.728 80.8211 172.389C81.1944 173.051 81.3811 173.829 81.3811 174.725C81.3811 174.811 81.3758 174.907 81.3651 175.013C81.3651 175.12 81.3598 175.221 81.3491 175.317H74.2291V173.989H80.2931L79.5091 174.405C79.5198 173.915 79.4184 173.483 79.2051 173.109C78.9918 172.736 78.6984 172.443 78.3251 172.229C77.9624 172.016 77.5411 171.909 77.0611 171.909C76.5704 171.909 76.1384 172.016 75.7651 172.229C75.4024 172.443 75.1144 172.741 74.9011 173.125C74.6984 173.499 74.5971 173.941 74.5971 174.453V174.773C74.5971 175.285 74.7144 175.739 74.9491 176.133C75.1838 176.528 75.5144 176.832 75.9411 177.045C76.3678 177.259 76.8584 177.365 77.4131 177.365C77.8931 177.365 78.3251 177.291 78.7091 177.141C79.0931 176.992 79.4344 176.757 79.7331 176.437L80.8051 177.669C80.4211 178.117 79.9358 178.464 79.3491 178.709C78.7731 178.944 78.1118 179.061 77.3651 179.061ZM86.5182 179.061C85.5796 179.061 84.8542 178.821 84.3422 178.341C83.8302 177.851 83.5742 177.131 83.5742 176.181V168.517H85.5742V176.133C85.5742 176.539 85.6756 176.853 85.8782 177.077C86.0916 177.301 86.3849 177.413 86.7582 177.413C87.2062 177.413 87.5796 177.296 87.8782 177.061L88.4382 178.485C88.2036 178.677 87.9156 178.821 87.5742 178.917C87.2329 179.013 86.8809 179.061 86.5182 179.061ZM82.1662 172.069V170.469H87.8622V172.069H82.1662ZM93.0964 179.061C92.1577 179.061 91.4324 178.821 90.9204 178.341C90.4084 177.851 90.1524 177.131 90.1524 176.181V168.517H92.1524V176.133C92.1524 176.539 92.2537 176.853 92.4564 177.077C92.6697 177.301 92.963 177.413 93.3364 177.413C93.7844 177.413 94.1577 177.296 94.4564 177.061L95.0164 178.485C94.7817 178.677 94.4937 178.821 94.1524 178.917C93.811 179.013 93.459 179.061 93.0964 179.061ZM88.7444 172.069V170.469H94.4404V172.069H88.7444ZM100.396 179.061C99.447 179.061 98.615 178.875 97.9004 178.501C97.1964 178.117 96.647 177.595 96.2524 176.933C95.8684 176.272 95.6764 175.52 95.6764 174.677C95.6764 173.824 95.863 173.072 96.2364 172.421C96.6204 171.76 97.143 171.243 97.8044 170.869C98.4764 170.496 99.239 170.309 100.092 170.309C100.924 170.309 101.666 170.491 102.316 170.853C102.967 171.216 103.479 171.728 103.852 172.389C104.226 173.051 104.412 173.829 104.412 174.725C104.412 174.811 104.407 174.907 104.396 175.013C104.396 175.12 104.391 175.221 104.38 175.317H97.2604V173.989H103.324L102.54 174.405C102.551 173.915 102.45 173.483 102.236 173.109C102.023 172.736 101.73 172.443 101.356 172.229C100.994 172.016 100.572 171.909 100.092 171.909C99.6017 171.909 99.1697 172.016 98.7964 172.229C98.4337 172.443 98.1457 172.741 97.9324 173.125C97.7297 173.499 97.6284 173.941 97.6284 174.453V174.773C97.6284 175.285 97.7457 175.739 97.9804 176.133C98.215 176.528 98.5457 176.832 98.9724 177.045C99.399 177.259 99.8897 177.365 100.444 177.365C100.924 177.365 101.356 177.291 101.74 177.141C102.124 176.992 102.466 176.757 102.764 176.437L103.836 177.669C103.452 178.117 102.967 178.464 102.38 178.709C101.804 178.944 101.143 179.061 100.396 179.061ZM106.333 178.949V170.405H108.237V172.757L108.013 172.069C108.269 171.493 108.669 171.056 109.213 170.757C109.768 170.459 110.456 170.309 111.277 170.309V172.213C111.192 172.192 111.112 172.181 111.037 172.181C110.963 172.171 110.888 172.165 110.813 172.165C110.056 172.165 109.453 172.389 109.005 172.837C108.557 173.275 108.333 173.931 108.333 174.805V178.949H106.333ZM117.666 178.949V167.749H122.562C123.778 167.749 124.845 167.984 125.762 168.453C126.679 168.923 127.394 169.573 127.906 170.405C128.418 171.237 128.674 172.219 128.674 173.349C128.674 174.469 128.418 175.451 127.906 176.293C127.394 177.125 126.679 177.776 125.762 178.245C124.845 178.715 123.778 178.949 122.562 178.949H117.666ZM119.746 177.189H122.466C123.309 177.189 124.034 177.029 124.642 176.709C125.261 176.389 125.735 175.941 126.066 175.365C126.407 174.789 126.578 174.117 126.578 173.349C126.578 172.571 126.407 171.899 126.066 171.333C125.735 170.757 125.261 170.309 124.642 169.989C124.034 169.669 123.309 169.509 122.466 169.509H119.746V177.189ZM134.709 179.061C133.76 179.061 132.928 178.875 132.213 178.501C131.509 178.117 130.96 177.595 130.565 176.933C130.181 176.272 129.989 175.52 129.989 174.677C129.989 173.824 130.176 173.072 130.549 172.421C130.933 171.76 131.456 171.243 132.117 170.869C132.789 170.496 133.552 170.309 134.405 170.309C135.237 170.309 135.978 170.491 136.629 170.853C137.28 171.216 137.792 171.728 138.165 172.389C138.538 173.051 138.725 173.829 138.725 174.725C138.725 174.811 138.72 174.907 138.709 175.013C138.709 175.12 138.704 175.221 138.693 175.317H131.573V173.989H137.637L136.853 174.405C136.864 173.915 136.762 173.483 136.549 173.109C136.336 172.736 136.042 172.443 135.669 172.229C135.306 172.016 134.885 171.909 134.405 171.909C133.914 171.909 133.482 172.016 133.109 172.229C132.746 172.443 132.458 172.741 132.245 173.125C132.042 173.499 131.941 173.941 131.941 174.453V174.773C131.941 175.285 132.058 175.739 132.293 176.133C132.528 176.528 132.858 176.832 133.285 177.045C133.712 177.259 134.202 177.365 134.757 177.365C135.237 177.365 135.669 177.291 136.053 177.141C136.437 176.992 136.778 176.757 137.077 176.437L138.149 177.669C137.765 178.117 137.28 178.464 136.693 178.709C136.117 178.944 135.456 179.061 134.709 179.061ZM143.862 179.061C142.923 179.061 142.198 178.821 141.686 178.341C141.174 177.851 140.918 177.131 140.918 176.181V168.517H142.918V176.133C142.918 176.539 143.019 176.853 143.222 177.077C143.435 177.301 143.729 177.413 144.102 177.413C144.55 177.413 144.923 177.296 145.222 177.061L145.782 178.485C145.547 178.677 145.259 178.821 144.918 178.917C144.577 179.013 144.225 179.061 143.862 179.061ZM139.51 172.069V170.469H145.206V172.069H139.51ZM150.986 179.061C150.111 179.061 149.333 178.875 148.65 178.501C147.967 178.117 147.429 177.595 147.034 176.933C146.639 176.272 146.442 175.52 146.442 174.677C146.442 173.824 146.639 173.072 147.034 172.421C147.429 171.76 147.967 171.243 148.65 170.869C149.333 170.496 150.111 170.309 150.986 170.309C151.871 170.309 152.655 170.496 153.338 170.869C154.031 171.243 154.57 171.755 154.954 172.405C155.349 173.056 155.546 173.813 155.546 174.677C155.546 175.52 155.349 176.272 154.954 176.933C154.57 177.595 154.031 178.117 153.338 178.501C152.655 178.875 151.871 179.061 150.986 179.061ZM150.986 177.349C151.477 177.349 151.914 177.243 152.298 177.029C152.682 176.816 152.981 176.507 153.194 176.101C153.418 175.696 153.53 175.221 153.53 174.677C153.53 174.123 153.418 173.648 153.194 173.253C152.981 172.848 152.682 172.539 152.298 172.325C151.914 172.112 151.482 172.005 151.002 172.005C150.511 172.005 150.074 172.112 149.69 172.325C149.317 172.539 149.018 172.848 148.794 173.253C148.57 173.648 148.458 174.123 148.458 174.677C148.458 175.221 148.57 175.696 148.794 176.101C149.018 176.507 149.317 176.816 149.69 177.029C150.074 177.243 150.506 177.349 150.986 177.349ZM156.009 178.949L159.769 174.053L159.737 175.125L156.153 170.405H158.377L160.889 173.765H160.041L162.569 170.405H164.729L161.113 175.125L161.129 174.053L164.873 178.949H162.617L159.977 175.381L160.809 175.493L158.217 178.949H156.009ZM166.349 178.949V170.405H168.349V178.949H166.349ZM167.357 168.997C166.984 168.997 166.674 168.88 166.429 168.645C166.194 168.411 166.077 168.128 166.077 167.797C166.077 167.456 166.194 167.173 166.429 166.949C166.674 166.715 166.984 166.597 167.357 166.597C167.73 166.597 168.034 166.709 168.269 166.933C168.514 167.147 168.637 167.419 168.637 167.749C168.637 168.101 168.52 168.4 168.285 168.645C168.05 168.88 167.741 168.997 167.357 168.997ZM171.246 178.949V169.925C171.246 169.029 171.507 168.315 172.03 167.781C172.563 167.237 173.321 166.965 174.302 166.965C174.654 166.965 174.985 167.003 175.294 167.077C175.614 167.152 175.881 167.269 176.094 167.429L175.55 168.933C175.401 168.816 175.23 168.731 175.038 168.677C174.846 168.613 174.649 168.581 174.446 168.581C174.03 168.581 173.715 168.699 173.502 168.933C173.289 169.157 173.182 169.499 173.182 169.957V170.917L173.246 171.813V178.949H171.246ZM169.838 172.069V170.469H175.534V172.069H169.838ZM176.942 178.949V170.405H178.942V178.949H176.942ZM177.95 168.997C177.577 168.997 177.267 168.88 177.022 168.645C176.787 168.411 176.67 168.128 176.67 167.797C176.67 167.456 176.787 167.173 177.022 166.949C177.267 166.715 177.577 166.597 177.95 166.597C178.323 166.597 178.627 166.709 178.862 166.933C179.107 167.147 179.23 167.419 179.23 167.749C179.23 168.101 179.113 168.4 178.878 168.645C178.643 168.88 178.334 168.997 177.95 168.997ZM185.488 179.061C184.592 179.061 183.792 178.875 183.088 178.501C182.395 178.117 181.851 177.595 181.456 176.933C181.061 176.272 180.864 175.52 180.864 174.677C180.864 173.824 181.061 173.072 181.456 172.421C181.851 171.76 182.395 171.243 183.088 170.869C183.792 170.496 184.592 170.309 185.488 170.309C186.32 170.309 187.051 170.48 187.68 170.821C188.32 171.152 188.805 171.643 189.136 172.293L187.6 173.189C187.344 172.784 187.029 172.485 186.656 172.293C186.293 172.101 185.899 172.005 185.472 172.005C184.981 172.005 184.539 172.112 184.144 172.325C183.749 172.539 183.44 172.848 183.216 173.253C182.992 173.648 182.88 174.123 182.88 174.677C182.88 175.232 182.992 175.712 183.216 176.117C183.44 176.512 183.749 176.816 184.144 177.029C184.539 177.243 184.981 177.349 185.472 177.349C185.899 177.349 186.293 177.253 186.656 177.061C187.029 176.869 187.344 176.571 187.6 176.165L189.136 177.061C188.805 177.701 188.32 178.197 187.68 178.549C187.051 178.891 186.32 179.061 185.488 179.061ZM196.129 178.949V177.221L196.017 176.853V173.829C196.017 173.243 195.841 172.789 195.489 172.469C195.137 172.139 194.603 171.973 193.889 171.973C193.409 171.973 192.934 172.048 192.465 172.197C192.006 172.347 191.617 172.555 191.297 172.821L190.513 171.365C190.971 171.013 191.515 170.752 192.145 170.581C192.785 170.4 193.446 170.309 194.129 170.309C195.366 170.309 196.321 170.608 196.993 171.205C197.675 171.792 198.017 172.704 198.017 173.941V178.949H196.129ZM193.441 179.061C192.801 179.061 192.241 178.955 191.761 178.741C191.281 178.517 190.907 178.213 190.641 177.829C190.385 177.435 190.257 176.992 190.257 176.501C190.257 176.021 190.369 175.589 190.593 175.205C190.827 174.821 191.206 174.517 191.729 174.293C192.251 174.069 192.945 173.957 193.809 173.957H196.289V175.285H193.953C193.27 175.285 192.811 175.397 192.577 175.621C192.342 175.835 192.225 176.101 192.225 176.421C192.225 176.784 192.369 177.072 192.657 177.285C192.945 177.499 193.345 177.605 193.857 177.605C194.347 177.605 194.785 177.493 195.169 177.269C195.563 177.045 195.846 176.715 196.017 176.277L196.353 177.477C196.161 177.979 195.814 178.368 195.313 178.645C194.822 178.923 194.198 179.061 193.441 179.061ZM203.799 179.061C202.861 179.061 202.135 178.821 201.623 178.341C201.111 177.851 200.855 177.131 200.855 176.181V168.517H202.855V176.133C202.855 176.539 202.957 176.853 203.159 177.077C203.373 177.301 203.666 177.413 204.039 177.413C204.487 177.413 204.861 177.296 205.159 177.061L205.719 178.485C205.485 178.677 205.197 178.821 204.855 178.917C204.514 179.013 204.162 179.061 203.799 179.061ZM199.447 172.069V170.469H205.143V172.069H199.447ZM207.365 178.949V170.405H209.365V178.949H207.365ZM208.373 168.997C207.999 168.997 207.69 168.88 207.445 168.645C207.21 168.411 207.093 168.128 207.093 167.797C207.093 167.456 207.21 167.173 207.445 166.949C207.69 166.715 207.999 166.597 208.373 166.597C208.746 166.597 209.05 166.709 209.285 166.933C209.53 167.147 209.653 167.419 209.653 167.749C209.653 168.101 209.535 168.4 209.301 168.645C209.066 168.88 208.757 168.997 208.373 168.997ZM215.83 179.061C214.955 179.061 214.176 178.875 213.494 178.501C212.811 178.117 212.272 177.595 211.878 176.933C211.483 176.272 211.286 175.52 211.286 174.677C211.286 173.824 211.483 173.072 211.878 172.421C212.272 171.76 212.811 171.243 213.494 170.869C214.176 170.496 214.955 170.309 215.83 170.309C216.715 170.309 217.499 170.496 218.182 170.869C218.875 171.243 219.414 171.755 219.798 172.405C220.192 173.056 220.39 173.813 220.39 174.677C220.39 175.52 220.192 176.272 219.798 176.933C219.414 177.595 218.875 178.117 218.182 178.501C217.499 178.875 216.715 179.061 215.83 179.061ZM215.83 177.349C216.32 177.349 216.758 177.243 217.142 177.029C217.526 176.816 217.824 176.507 218.038 176.101C218.262 175.696 218.374 175.221 218.374 174.677C218.374 174.123 218.262 173.648 218.038 173.253C217.824 172.848 217.526 172.539 217.142 172.325C216.758 172.112 216.326 172.005 215.846 172.005C215.355 172.005 214.918 172.112 214.534 172.325C214.16 172.539 213.862 172.848 213.638 173.253C213.414 173.648 213.302 174.123 213.302 174.677C213.302 175.221 213.414 175.696 213.638 176.101C213.862 176.507 214.16 176.816 214.534 177.029C214.918 177.243 215.35 177.349 215.83 177.349ZM227.15 170.309C227.833 170.309 228.441 170.443 228.974 170.709C229.518 170.976 229.945 171.387 230.254 171.941C230.564 172.485 230.718 173.189 230.718 174.053V178.949H228.718V174.309C228.718 173.552 228.537 172.987 228.174 172.613C227.822 172.24 227.326 172.053 226.686 172.053C226.217 172.053 225.801 172.149 225.438 172.341C225.076 172.533 224.793 172.821 224.59 173.205C224.398 173.579 224.302 174.053 224.302 174.629V178.949H222.302V170.405H224.206V172.709L223.87 172.005C224.169 171.461 224.601 171.045 225.166 170.757C225.742 170.459 226.404 170.309 227.15 170.309Z" fill="#374B3C"/>
</svg>
