<svg width="370" height="262" viewBox="0 0 370 262" fill="none" xmlns="http://www.w3.org/2000/svg">
<rect width="370" height="261.5" rx="27.5354" fill="#F6F9F2"/>
<path d="M155.836 109.167H214.169M160.003 109.167C161.336 81.0667 171.419 70.6417 185.003 67.5M185.003 67.5C198.586 70.6417 208.669 81.0667 210.003 109.167M185.003 67.5C178.969 79.6583 176.669 88.6875 176.669 109.167M185.003 67.5C191.036 79.6583 193.336 88.6875 193.336 109.167M185.003 67.5V42.5M185.003 117.5V109.167M164.169 63.3333C166.836 60.6667 170.457 59.1667 174.228 59.1667H195.778C199.548 59.1667 203.169 60.6667 205.836 63.3333M180.836 42.5H189.169" stroke="#374B3C" stroke-width="6.66667" stroke-linecap="round" stroke-linejoin="round"/>
<path d="M155.836 109.167H214.169M160.003 109.167C161.336 81.067 171.419 70.642 185.003 67.5003M185.003 67.5003C198.586 70.642 208.669 81.067 210.003 109.167M185.003 67.5003C178.969 79.6587 176.669 88.6878 176.669 109.167M185.003 67.5003C191.036 79.6587 193.336 88.6878 193.336 109.167" stroke="#A5C686" stroke-width="6.66667" stroke-linecap="round" stroke-linejoin="round"/>
<path d="M36.7079 175.5V148.884H41.857V175.5H36.7079ZM40.494 164.596V160.015H53.8969V164.596H40.494ZM40.494 153.427V148.884H54.5405V153.427H40.494ZM57.6877 175.5V157.213H62.6475V175.5H57.6877ZM62.6475 165.391L60.7166 164.104C60.9438 161.857 61.6001 160.09 62.6854 158.803C63.7708 157.491 65.3357 156.834 67.3802 156.834C68.2636 156.834 69.0587 156.986 69.7655 157.289C70.4722 157.566 71.1158 158.033 71.6964 158.69L68.5918 162.249C68.3141 161.946 67.9734 161.719 67.5695 161.567C67.1909 161.416 66.7492 161.34 66.2444 161.34C65.1842 161.34 64.3134 161.681 63.6319 162.362C62.9757 163.018 62.6475 164.028 62.6475 165.391ZM81.2883 175.879C79.37 175.879 77.6662 175.475 76.177 174.667C74.6878 173.834 73.5015 172.698 72.6181 171.26C71.7599 169.821 71.3308 168.18 71.3308 166.338C71.3308 164.52 71.7473 162.905 72.5802 161.491C73.4384 160.053 74.5995 158.917 76.0634 158.084C77.5274 157.226 79.1554 156.797 80.9475 156.797C82.7144 156.797 84.2667 157.2 85.6044 158.008C86.9675 158.791 88.0276 159.876 88.7848 161.264C89.5673 162.627 89.9585 164.18 89.9585 165.921C89.9585 166.249 89.9332 166.59 89.8828 166.943C89.8575 167.271 89.7944 167.65 89.6935 168.079L74.3218 168.117V164.407L87.3839 164.369L85.3773 165.921C85.3268 164.836 85.1249 163.927 84.7715 163.195C84.4434 162.463 83.9512 161.908 83.2949 161.529C82.6639 161.125 81.8814 160.923 80.9475 160.923C79.9631 160.923 79.1049 161.151 78.373 161.605C77.641 162.034 77.0731 162.652 76.6692 163.46C76.2906 164.243 76.1013 165.177 76.1013 166.262C76.1013 167.372 76.3032 168.344 76.7071 169.177C77.1362 169.985 77.7419 170.616 78.5244 171.07C79.3069 171.499 80.2155 171.714 81.2504 171.714C82.1843 171.714 83.0299 171.562 83.7871 171.26C84.5443 170.931 85.2006 170.452 85.7559 169.821L88.6712 172.736C87.7878 173.771 86.7024 174.553 85.4151 175.084C84.1531 175.614 82.7775 175.879 81.2883 175.879ZM101.393 175.879C99.4749 175.879 97.7711 175.475 96.2819 174.667C94.7927 173.834 93.6064 172.698 92.7229 171.26C91.8648 169.821 91.4357 168.18 91.4357 166.338C91.4357 164.52 91.8521 162.905 92.6851 161.491C93.5433 160.053 94.7043 158.917 96.1683 158.084C97.6323 157.226 99.2603 156.797 101.052 156.797C102.819 156.797 104.372 157.2 105.709 158.008C107.072 158.791 108.132 159.876 108.89 161.264C109.672 162.627 110.063 164.18 110.063 165.921C110.063 166.249 110.038 166.59 109.988 166.943C109.962 167.271 109.899 167.65 109.798 168.079L94.4267 168.117V164.407L107.489 164.369L105.482 165.921C105.432 164.836 105.23 163.927 104.876 163.195C104.548 162.463 104.056 161.908 103.4 161.529C102.769 161.125 101.986 160.923 101.052 160.923C100.068 160.923 99.2098 161.151 98.4778 161.605C97.7459 162.034 97.1779 162.652 96.7741 163.46C96.3955 164.243 96.2062 165.177 96.2062 166.262C96.2062 167.372 96.4081 168.344 96.812 169.177C97.2411 169.985 97.8468 170.616 98.6293 171.07C99.4118 171.499 100.32 171.714 101.355 171.714C102.289 171.714 103.135 171.562 103.892 171.26C104.649 170.931 105.305 170.452 105.861 169.821L108.776 172.736C107.893 173.771 106.807 174.553 105.52 175.084C104.258 175.614 102.882 175.879 101.393 175.879ZM120.298 175.5V148.884H125.447V175.5H120.298ZM124.084 175.5V170.919H137.639V175.5H124.084ZM140.428 175.5V157.213H145.425V175.5H140.428ZM142.927 154.26C142.119 154.26 141.45 153.995 140.92 153.465C140.39 152.909 140.125 152.228 140.125 151.42C140.125 150.638 140.39 149.969 140.92 149.414C141.45 148.858 142.119 148.581 142.927 148.581C143.76 148.581 144.428 148.858 144.933 149.414C145.463 149.969 145.728 150.638 145.728 151.42C145.728 152.228 145.463 152.909 144.933 153.465C144.428 153.995 143.76 154.26 142.927 154.26ZM149.441 175.5V157.213H154.4V175.5H149.441ZM161.367 175.5V164.71C161.367 163.649 161.026 162.829 160.345 162.249C159.688 161.643 158.868 161.34 157.884 161.34C157.227 161.34 156.634 161.479 156.104 161.756C155.574 162.009 155.158 162.387 154.855 162.892C154.552 163.397 154.4 164.003 154.4 164.71L152.469 163.763C152.469 162.35 152.772 161.125 153.378 160.09C154.009 159.056 154.855 158.261 155.915 157.705C156.975 157.125 158.174 156.834 159.512 156.834C160.774 156.834 161.922 157.125 162.957 157.705C163.992 158.261 164.812 159.056 165.418 160.09C166.024 161.1 166.327 162.324 166.327 163.763V175.5H161.367ZM173.293 175.5V164.71C173.293 163.649 172.952 162.829 172.271 162.249C171.615 161.643 170.794 161.34 169.81 161.34C169.179 161.34 168.586 161.479 168.03 161.756C167.5 162.009 167.084 162.387 166.781 162.892C166.478 163.397 166.327 164.003 166.327 164.71L163.487 164.028C163.588 162.564 163.979 161.302 164.661 160.242C165.342 159.157 166.238 158.324 167.349 157.743C168.459 157.137 169.696 156.834 171.059 156.834C172.422 156.834 173.646 157.125 174.732 157.705C175.817 158.261 176.675 159.068 177.306 160.128C177.937 161.188 178.253 162.451 178.253 163.914V175.5H173.293ZM181.895 175.5V157.213H186.892V175.5H181.895ZM184.393 154.26C183.586 154.26 182.917 153.995 182.387 153.465C181.857 152.909 181.592 152.228 181.592 151.42C181.592 150.638 181.857 149.969 182.387 149.414C182.917 148.858 183.586 148.581 184.393 148.581C185.226 148.581 185.895 148.858 186.4 149.414C186.93 149.969 187.195 150.638 187.195 151.42C187.195 152.228 186.93 152.909 186.4 153.465C185.895 153.995 185.226 154.26 184.393 154.26ZM193.596 175.5V149.603H198.555V175.5H193.596ZM189.317 161.567V157.213H202.834V161.567H189.317ZM213.547 175.879C211.628 175.879 209.925 175.475 208.435 174.667C206.946 173.834 205.76 172.698 204.876 171.26C204.018 169.821 203.589 168.18 203.589 166.338C203.589 164.52 204.006 162.905 204.839 161.491C205.697 160.053 206.858 158.917 208.322 158.084C209.786 157.226 211.414 156.797 213.206 156.797C214.973 156.797 216.525 157.2 217.863 158.008C219.226 158.791 220.286 159.876 221.043 161.264C221.826 162.627 222.217 164.18 222.217 165.921C222.217 166.249 222.192 166.59 222.141 166.943C222.116 167.271 222.053 167.65 221.952 168.079L206.58 168.117V164.407L219.642 164.369L217.636 165.921C217.585 164.836 217.383 163.927 217.03 163.195C216.702 162.463 216.21 161.908 215.553 161.529C214.922 161.125 214.14 160.923 213.206 160.923C212.221 160.923 211.363 161.151 210.631 161.605C209.899 162.034 209.331 162.652 208.928 163.46C208.549 164.243 208.36 165.177 208.36 166.262C208.36 167.372 208.562 168.344 208.965 169.177C209.394 169.985 210 170.616 210.783 171.07C211.565 171.499 212.474 171.714 213.509 171.714C214.443 171.714 215.288 171.562 216.045 171.26C216.803 170.931 217.459 170.452 218.014 169.821L220.93 172.736C220.046 173.771 218.961 174.553 217.673 175.084C216.411 175.614 215.036 175.879 213.547 175.879ZM232.629 175.879C230.938 175.879 229.424 175.462 228.086 174.629C226.748 173.796 225.688 172.66 224.906 171.222C224.148 169.783 223.77 168.168 223.77 166.375C223.77 164.558 224.148 162.93 224.906 161.491C225.688 160.053 226.736 158.917 228.048 158.084C229.386 157.251 230.913 156.834 232.629 156.834C233.942 156.834 235.115 157.099 236.15 157.63C237.21 158.16 238.056 158.904 238.687 159.863C239.343 160.797 239.697 161.857 239.747 163.044V169.556C239.697 170.742 239.356 171.815 238.725 172.774C238.094 173.733 237.248 174.49 236.188 175.046C235.128 175.601 233.942 175.879 232.629 175.879ZM233.462 171.297C234.396 171.297 235.204 171.095 235.885 170.692C236.592 170.263 237.135 169.682 237.513 168.95C237.917 168.193 238.119 167.322 238.119 166.338C238.119 165.378 237.917 164.533 237.513 163.801C237.135 163.044 236.592 162.463 235.885 162.059C235.204 161.63 234.409 161.416 233.5 161.416C232.566 161.416 231.746 161.63 231.039 162.059C230.358 162.488 229.815 163.069 229.411 163.801C229.032 164.533 228.843 165.378 228.843 166.338C228.843 167.322 229.032 168.193 229.411 168.95C229.815 169.682 230.37 170.263 231.077 170.692C231.784 171.095 232.579 171.297 233.462 171.297ZM242.776 175.5H237.854V170.578L238.649 166.11L237.816 161.719V148.126H242.776V175.5ZM260.328 175.5V149.451H265.515V175.5H260.328ZM251.847 153.465V148.884H273.996V153.465H251.847ZM276.642 175.5V157.213H281.64V175.5H276.642ZM279.141 154.26C278.333 154.26 277.665 153.995 277.134 153.465C276.604 152.909 276.339 152.228 276.339 151.42C276.339 150.638 276.604 149.969 277.134 149.414C277.665 148.858 278.333 148.581 279.141 148.581C279.974 148.581 280.643 148.858 281.148 149.414C281.678 149.969 281.943 150.638 281.943 151.42C281.943 152.228 281.678 152.909 281.148 153.465C280.643 153.995 279.974 154.26 279.141 154.26ZM285.655 175.5V157.213H290.615V175.5H285.655ZM297.581 175.5V164.71C297.581 163.649 297.241 162.829 296.559 162.249C295.903 161.643 295.082 161.34 294.098 161.34C293.442 161.34 292.849 161.479 292.319 161.756C291.789 162.009 291.372 162.387 291.069 162.892C290.766 163.397 290.615 164.003 290.615 164.71L288.684 163.763C288.684 162.35 288.987 161.125 289.593 160.09C290.224 159.056 291.069 158.261 292.129 157.705C293.189 157.125 294.388 156.834 295.726 156.834C296.988 156.834 298.137 157.125 299.171 157.705C300.206 158.261 301.027 159.056 301.632 160.09C302.238 161.1 302.541 162.324 302.541 163.763V175.5H297.581ZM309.508 175.5V164.71C309.508 163.649 309.167 162.829 308.485 162.249C307.829 161.643 307.009 161.34 306.024 161.34C305.393 161.34 304.8 161.479 304.245 161.756C303.715 162.009 303.298 162.387 302.995 162.892C302.693 163.397 302.541 164.003 302.541 164.71L299.702 164.028C299.803 162.564 300.194 161.302 300.875 160.242C301.557 159.157 302.453 158.324 303.563 157.743C304.674 157.137 305.911 156.834 307.274 156.834C308.637 156.834 309.861 157.125 310.946 157.705C312.032 158.261 312.89 159.068 313.521 160.128C314.152 161.188 314.467 162.451 314.467 163.914V175.5H309.508ZM326.855 175.879C324.937 175.879 323.233 175.475 321.744 174.667C320.255 173.834 319.068 172.698 318.185 171.26C317.327 169.821 316.898 168.18 316.898 166.338C316.898 164.52 317.314 162.905 318.147 161.491C319.005 160.053 320.166 158.917 321.63 158.084C323.094 157.226 324.722 156.797 326.514 156.797C328.281 156.797 329.834 157.2 331.171 158.008C332.534 158.791 333.594 159.876 334.352 161.264C335.134 162.627 335.525 164.18 335.525 165.921C335.525 166.249 335.5 166.59 335.45 166.943C335.424 167.271 335.361 167.65 335.26 168.079L319.889 168.117V164.407L332.951 164.369L330.944 165.921C330.894 164.836 330.692 163.927 330.338 163.195C330.01 162.463 329.518 161.908 328.862 161.529C328.231 161.125 327.448 160.923 326.514 160.923C325.53 160.923 324.672 161.151 323.94 161.605C323.208 162.034 322.64 162.652 322.236 163.46C321.857 164.243 321.668 165.177 321.668 166.262C321.668 167.372 321.87 168.344 322.274 169.177C322.703 169.985 323.309 170.616 324.091 171.07C324.874 171.499 325.782 171.714 326.817 171.714C327.751 171.714 328.597 171.562 329.354 171.26C330.111 170.931 330.767 170.452 331.323 169.821L334.238 172.736C333.355 173.771 332.269 174.553 330.982 175.084C329.72 175.614 328.344 175.879 326.855 175.879ZM158.379 222.879C156.486 222.879 154.707 222.538 153.041 221.856C151.4 221.15 149.949 220.165 148.687 218.903C147.45 217.641 146.478 216.19 145.771 214.549C145.09 212.883 144.749 211.091 144.749 209.173C144.749 207.229 145.102 205.437 145.809 203.797C146.516 202.131 147.5 200.679 148.762 199.443C150.024 198.18 151.501 197.209 153.192 196.527C154.883 195.82 156.713 195.467 158.682 195.467C160.878 195.467 162.897 195.884 164.74 196.717C166.582 197.524 168.109 198.673 169.321 200.162L165.838 203.645C165.005 202.56 163.97 201.727 162.733 201.146C161.496 200.566 160.133 200.275 158.644 200.275C156.953 200.275 155.451 200.654 154.139 201.411C152.851 202.143 151.842 203.178 151.11 204.516C150.378 205.828 150.012 207.368 150.012 209.135C150.012 210.902 150.365 212.467 151.072 213.83C151.804 215.168 152.788 216.215 154.025 216.972C155.287 217.729 156.726 218.108 158.341 218.108C160.007 218.108 161.433 217.805 162.62 217.199C163.806 216.568 164.715 215.66 165.346 214.473C165.977 213.262 166.292 211.785 166.292 210.044L169.662 212.353L158.038 212.24V207.772H171.593V208.491C171.593 211.672 171.025 214.335 169.889 216.48C168.753 218.6 167.188 220.203 165.194 221.288C163.225 222.349 160.954 222.879 158.379 222.879ZM174.634 222.5V204.213H179.631V222.5H174.634ZM177.133 201.26C176.325 201.26 175.656 200.995 175.126 200.465C174.596 199.909 174.331 199.228 174.331 198.42C174.331 197.638 174.596 196.969 175.126 196.414C175.656 195.858 176.325 195.581 177.133 195.581C177.966 195.581 178.634 195.858 179.139 196.414C179.669 196.969 179.934 197.638 179.934 198.42C179.934 199.228 179.669 199.909 179.139 200.465C178.634 200.995 177.966 201.26 177.133 201.26ZM186.07 222.5V202.244C186.07 200.78 186.385 199.493 187.016 198.382C187.647 197.247 188.543 196.351 189.704 195.694C190.865 195.038 192.228 194.71 193.793 194.71C194.98 194.71 196.002 194.912 196.86 195.316C197.718 195.72 198.488 196.275 199.17 196.982L196.027 200.162C195.749 199.884 195.447 199.67 195.118 199.518C194.79 199.367 194.374 199.291 193.869 199.291C192.96 199.291 192.254 199.543 191.749 200.048C191.269 200.528 191.029 201.222 191.029 202.131V222.5H186.07ZM181.829 208.567V204.213H196.444V208.567H181.829ZM200.746 222.5V196.603H205.705V222.5H200.746ZM196.467 208.567V204.213H209.984V208.567H196.467ZM218.31 222.916C217.275 222.916 216.252 222.778 215.243 222.5C214.258 222.222 213.35 221.844 212.517 221.364C211.684 220.859 210.964 220.254 210.359 219.547L213.312 216.556C213.943 217.263 214.675 217.793 215.508 218.146C216.341 218.499 217.262 218.676 218.272 218.676C219.079 218.676 219.685 218.562 220.089 218.335C220.518 218.108 220.733 217.767 220.733 217.313C220.733 216.808 220.506 216.417 220.051 216.139C219.622 215.862 219.054 215.635 218.347 215.458C217.641 215.256 216.896 215.041 216.114 214.814C215.356 214.562 214.624 214.246 213.918 213.868C213.211 213.464 212.63 212.921 212.176 212.24C211.747 211.533 211.532 210.624 211.532 209.514C211.532 208.353 211.81 207.343 212.365 206.485C212.946 205.627 213.766 204.958 214.826 204.478C215.886 203.998 217.136 203.759 218.575 203.759C220.089 203.759 221.452 204.024 222.664 204.554C223.9 205.084 224.923 205.879 225.73 206.939L222.739 209.93C222.184 209.249 221.553 208.756 220.846 208.453C220.165 208.151 219.42 207.999 218.612 207.999C217.88 207.999 217.313 208.113 216.909 208.34C216.53 208.567 216.341 208.883 216.341 209.286C216.341 209.741 216.555 210.094 216.984 210.347C217.439 210.599 218.019 210.826 218.726 211.028C219.433 211.205 220.165 211.419 220.922 211.672C221.704 211.899 222.436 212.227 223.118 212.656C223.825 213.085 224.393 213.653 224.822 214.36C225.276 215.067 225.503 215.975 225.503 217.086C225.503 218.878 224.86 220.304 223.572 221.364C222.285 222.399 220.531 222.916 218.31 222.916Z" fill="black"/>
</svg>
