<svg width="292" height="292" viewBox="0 0 292 292" fill="none" xmlns="http://www.w3.org/2000/svg">
<rect width="291.807" height="291.805" rx="24" fill="#F6F9F2"/>
<path d="M28.6196 115.953C25.9063 115.953 23.2479 115.568 20.6446 114.798C18.0779 113.992 15.9146 112.892 14.1546 111.498L17.2346 105.943C18.6279 107.08 20.3146 107.997 22.2946 108.693C24.2746 109.39 26.3463 109.738 28.5096 109.738C31.0763 109.738 33.0746 109.225 34.5046 108.198C35.9346 107.135 36.6496 105.705 36.6496 103.908C36.6496 102.148 35.9896 100.755 34.6696 99.7283C33.3496 98.7017 31.2229 98.1883 28.2896 98.1883H24.7696V93.2933L35.7696 80.2033L36.7046 82.8983H16.0246V76.9033H42.2596V81.6883L31.2596 94.7783L27.5196 92.5783H29.6646C34.3946 92.5783 37.9329 93.6417 40.2796 95.7683C42.6629 97.8583 43.8546 100.553 43.8546 103.853C43.8546 106.017 43.3046 108.015 42.2046 109.848C41.1046 111.682 39.4179 113.167 37.1446 114.303C34.9079 115.403 32.0663 115.953 28.6196 115.953ZM46.0692 115.403L62.2942 93.0733V98.4633L46.8392 76.9033H54.9242L66.4192 92.8533L63.1192 92.9083L74.5042 76.9033H82.2592L66.9142 98.0783V92.9083L83.2492 115.403H74.9992L62.8992 98.4633H66.1442L54.2092 115.403H46.0692Z" fill="#374B3C"/>
<path d="M15.8302 141.403V130.203H17.5422L22.4382 138.379H21.5422L26.3582 130.203H28.0702L28.0862 141.403H26.1182L26.1022 133.291H26.5182L22.4222 140.123H21.4942L17.3342 133.291H17.8142V141.403H15.8302ZM34.7594 141.515C33.8848 141.515 33.1061 141.329 32.4234 140.955C31.7408 140.571 31.2021 140.049 30.8074 139.387C30.4128 138.726 30.2154 137.974 30.2154 137.131C30.2154 136.278 30.4128 135.526 30.8074 134.875C31.2021 134.214 31.7408 133.697 32.4234 133.323C33.1061 132.95 33.8848 132.763 34.7594 132.763C35.6448 132.763 36.4288 132.95 37.1114 133.323C37.8048 133.697 38.3434 134.209 38.7274 134.859C39.1221 135.51 39.3194 136.267 39.3194 137.131C39.3194 137.974 39.1221 138.726 38.7274 139.387C38.3434 140.049 37.8048 140.571 37.1114 140.955C36.4288 141.329 35.6448 141.515 34.7594 141.515ZM34.7594 139.803C35.2501 139.803 35.6874 139.697 36.0714 139.483C36.4554 139.27 36.7541 138.961 36.9674 138.555C37.1914 138.15 37.3034 137.675 37.3034 137.131C37.3034 136.577 37.1914 136.102 36.9674 135.707C36.7541 135.302 36.4554 134.993 36.0714 134.779C35.6874 134.566 35.2554 134.459 34.7754 134.459C34.2848 134.459 33.8474 134.566 33.4634 134.779C33.0901 134.993 32.7914 135.302 32.5674 135.707C32.3434 136.102 32.2314 136.577 32.2314 137.131C32.2314 137.675 32.3434 138.15 32.5674 138.555C32.7914 138.961 33.0901 139.27 33.4634 139.483C33.8474 139.697 34.2794 139.803 34.7594 139.803ZM41.2319 141.403V132.859H43.1359V135.211L42.9119 134.523C43.1679 133.947 43.5679 133.51 44.1119 133.211C44.6666 132.913 45.3546 132.763 46.1759 132.763V134.667C46.0906 134.646 46.0106 134.635 45.9359 134.635C45.8613 134.625 45.7866 134.619 45.7119 134.619C44.9546 134.619 44.3519 134.843 43.9039 135.291C43.4559 135.729 43.2319 136.385 43.2319 137.259V141.403H41.2319ZM51.8104 141.515C50.8611 141.515 50.0291 141.329 49.3144 140.955C48.6104 140.571 48.0611 140.049 47.6664 139.387C47.2824 138.726 47.0904 137.974 47.0904 137.131C47.0904 136.278 47.2771 135.526 47.6504 134.875C48.0344 134.214 48.5571 133.697 49.2184 133.323C49.8904 132.95 50.6531 132.763 51.5064 132.763C52.3384 132.763 53.0798 132.945 53.7304 133.307C54.3811 133.67 54.8931 134.182 55.2664 134.843C55.6398 135.505 55.8264 136.283 55.8264 137.179C55.8264 137.265 55.8211 137.361 55.8104 137.467C55.8104 137.574 55.8051 137.675 55.7944 137.771H48.6744V136.443H54.7384L53.9544 136.859C53.9651 136.369 53.8638 135.937 53.6504 135.563C53.4371 135.19 53.1438 134.897 52.7704 134.683C52.4078 134.47 51.9864 134.363 51.5064 134.363C51.0158 134.363 50.5838 134.47 50.2104 134.683C49.8478 134.897 49.5598 135.195 49.3464 135.579C49.1438 135.953 49.0424 136.395 49.0424 136.907V137.227C49.0424 137.739 49.1598 138.193 49.3944 138.587C49.6291 138.982 49.9598 139.286 50.3864 139.499C50.8131 139.713 51.3038 139.819 51.8584 139.819C52.3384 139.819 52.7704 139.745 53.1544 139.595C53.5384 139.446 53.8798 139.211 54.1784 138.891L55.2504 140.123C54.8664 140.571 54.3811 140.918 53.7944 141.163C53.2184 141.398 52.5571 141.515 51.8104 141.515ZM64.2654 135.355H69.8494V137.115H64.2654V135.355ZM64.4414 141.403H62.3614V130.203H70.5374V131.947H64.4414V141.403ZM75.9625 141.515C75.0879 141.515 74.3092 141.329 73.6265 140.955C72.9439 140.571 72.4052 140.049 72.0105 139.387C71.6159 138.726 71.4185 137.974 71.4185 137.131C71.4185 136.278 71.6159 135.526 72.0105 134.875C72.4052 134.214 72.9439 133.697 73.6265 133.323C74.3092 132.95 75.0879 132.763 75.9625 132.763C76.8479 132.763 77.6319 132.95 78.3145 133.323C79.0079 133.697 79.5465 134.209 79.9305 134.859C80.3252 135.51 80.5225 136.267 80.5225 137.131C80.5225 137.974 80.3252 138.726 79.9305 139.387C79.5465 140.049 79.0079 140.571 78.3145 140.955C77.6319 141.329 76.8479 141.515 75.9625 141.515ZM75.9625 139.803C76.4532 139.803 76.8905 139.697 77.2745 139.483C77.6585 139.27 77.9572 138.961 78.1705 138.555C78.3945 138.15 78.5065 137.675 78.5065 137.131C78.5065 136.577 78.3945 136.102 78.1705 135.707C77.9572 135.302 77.6585 134.993 77.2745 134.779C76.8905 134.566 76.4585 134.459 75.9785 134.459C75.4879 134.459 75.0505 134.566 74.6665 134.779C74.2932 134.993 73.9945 135.302 73.7705 135.707C73.5465 136.102 73.4345 136.577 73.4345 137.131C73.4345 137.675 73.5465 138.15 73.7705 138.555C73.9945 138.961 74.2932 139.27 74.6665 139.483C75.0505 139.697 75.4825 139.803 75.9625 139.803ZM86.355 141.515C85.459 141.515 84.659 141.329 83.955 140.955C83.2617 140.571 82.7177 140.049 82.323 139.387C81.9284 138.726 81.731 137.974 81.731 137.131C81.731 136.278 81.9284 135.526 82.323 134.875C82.7177 134.214 83.2617 133.697 83.955 133.323C84.659 132.95 85.459 132.763 86.355 132.763C87.187 132.763 87.9177 132.934 88.547 133.275C89.187 133.606 89.6724 134.097 90.003 134.747L88.467 135.643C88.211 135.238 87.8964 134.939 87.523 134.747C87.1604 134.555 86.7657 134.459 86.339 134.459C85.8484 134.459 85.4057 134.566 85.011 134.779C84.6164 134.993 84.307 135.302 84.083 135.707C83.859 136.102 83.747 136.577 83.747 137.131C83.747 137.686 83.859 138.166 84.083 138.571C84.307 138.966 84.6164 139.27 85.011 139.483C85.4057 139.697 85.8484 139.803 86.339 139.803C86.7657 139.803 87.1604 139.707 87.523 139.515C87.8964 139.323 88.211 139.025 88.467 138.619L90.003 139.515C89.6724 140.155 89.187 140.651 88.547 141.003C87.9177 141.345 87.187 141.515 86.355 141.515ZM95.3479 141.515C94.6226 141.515 93.9826 141.382 93.4279 141.115C92.8733 140.838 92.4413 140.422 92.1319 139.867C91.8226 139.302 91.6679 138.593 91.6679 137.739V132.859H93.6679V137.467C93.6679 138.235 93.8386 138.811 94.1799 139.195C94.5319 139.569 95.0279 139.755 95.6679 139.755C96.1373 139.755 96.5426 139.659 96.8839 139.467C97.2359 139.275 97.5079 138.987 97.6999 138.603C97.9026 138.219 98.0039 137.745 98.0039 137.179V132.859H100.004V141.403H98.0999V139.099L98.4359 139.803C98.1479 140.358 97.7266 140.785 97.1719 141.083C96.6173 141.371 96.0093 141.515 95.3479 141.515ZM105.263 141.515C104.548 141.515 103.86 141.425 103.199 141.243C102.548 141.051 102.031 140.822 101.647 140.555L102.415 139.035C102.799 139.281 103.257 139.483 103.791 139.643C104.324 139.803 104.857 139.883 105.391 139.883C106.02 139.883 106.473 139.798 106.751 139.627C107.039 139.457 107.183 139.227 107.183 138.939C107.183 138.705 107.087 138.529 106.895 138.411C106.703 138.283 106.452 138.187 106.143 138.123C105.833 138.059 105.487 138.001 105.103 137.947C104.729 137.894 104.351 137.825 103.967 137.739C103.593 137.643 103.252 137.51 102.943 137.339C102.633 137.158 102.383 136.918 102.191 136.619C101.999 136.321 101.903 135.926 101.903 135.435C101.903 134.891 102.057 134.422 102.367 134.027C102.676 133.622 103.108 133.313 103.663 133.099C104.228 132.875 104.895 132.763 105.663 132.763C106.239 132.763 106.82 132.827 107.407 132.955C107.993 133.083 108.479 133.265 108.863 133.499L108.095 135.019C107.689 134.774 107.279 134.609 106.863 134.523C106.457 134.427 106.052 134.379 105.647 134.379C105.039 134.379 104.585 134.47 104.287 134.651C103.999 134.833 103.855 135.062 103.855 135.339C103.855 135.595 103.951 135.787 104.143 135.915C104.335 136.043 104.585 136.145 104.895 136.219C105.204 136.294 105.545 136.358 105.919 136.411C106.303 136.454 106.681 136.523 107.055 136.619C107.428 136.715 107.769 136.849 108.079 137.019C108.399 137.179 108.655 137.409 108.847 137.707C109.039 138.006 109.135 138.395 109.135 138.875C109.135 139.409 108.975 139.873 108.655 140.267C108.345 140.662 107.903 140.971 107.327 141.195C106.751 141.409 106.063 141.515 105.263 141.515ZM114.873 141.515C113.924 141.515 113.092 141.329 112.377 140.955C111.673 140.571 111.124 140.049 110.729 139.387C110.345 138.726 110.153 137.974 110.153 137.131C110.153 136.278 110.34 135.526 110.713 134.875C111.097 134.214 111.62 133.697 112.281 133.323C112.953 132.95 113.716 132.763 114.569 132.763C115.401 132.763 116.142 132.945 116.793 133.307C117.444 133.67 117.956 134.182 118.329 134.843C118.702 135.505 118.889 136.283 118.889 137.179C118.889 137.265 118.884 137.361 118.873 137.467C118.873 137.574 118.868 137.675 118.857 137.771H111.737V136.443H117.801L117.017 136.859C117.028 136.369 116.926 135.937 116.713 135.563C116.5 135.19 116.206 134.897 115.833 134.683C115.47 134.47 115.049 134.363 114.569 134.363C114.078 134.363 113.646 134.47 113.273 134.683C112.91 134.897 112.622 135.195 112.409 135.579C112.206 135.953 112.105 136.395 112.105 136.907V137.227C112.105 137.739 112.222 138.193 112.457 138.587C112.692 138.982 113.022 139.286 113.449 139.499C113.876 139.713 114.366 139.819 114.921 139.819C115.401 139.819 115.833 139.745 116.217 139.595C116.601 139.446 116.942 139.211 117.241 138.891L118.313 140.123C117.929 140.571 117.444 140.918 116.857 141.163C116.281 141.398 115.62 141.515 114.873 141.515ZM124.426 141.515C123.605 141.515 122.863 141.334 122.202 140.971C121.551 140.598 121.039 140.086 120.666 139.435C120.293 138.785 120.106 138.017 120.106 137.131C120.106 136.246 120.293 135.478 120.666 134.827C121.039 134.177 121.551 133.67 122.202 133.307C122.863 132.945 123.605 132.763 124.426 132.763C125.141 132.763 125.781 132.923 126.346 133.243C126.911 133.553 127.359 134.027 127.69 134.667C128.021 135.307 128.186 136.129 128.186 137.131C128.186 138.123 128.026 138.945 127.706 139.595C127.386 140.235 126.943 140.715 126.378 141.035C125.813 141.355 125.162 141.515 124.426 141.515ZM124.666 139.803C125.146 139.803 125.573 139.697 125.946 139.483C126.33 139.27 126.634 138.961 126.858 138.555C127.093 138.15 127.21 137.675 127.21 137.131C127.21 136.577 127.093 136.102 126.858 135.707C126.634 135.302 126.33 134.993 125.946 134.779C125.573 134.566 125.146 134.459 124.666 134.459C124.186 134.459 123.754 134.566 123.37 134.779C122.997 134.993 122.693 135.302 122.458 135.707C122.234 136.102 122.122 136.577 122.122 137.131C122.122 137.675 122.234 138.15 122.458 138.555C122.693 138.961 122.997 139.27 123.37 139.483C123.754 139.697 124.186 139.803 124.666 139.803ZM127.258 141.403V139.387L127.338 137.115L127.178 134.843V129.531H129.162V141.403H127.258Z" fill="#374B3C"/>
<rect x="13.9043" y="180.903" width="81.3333" height="90" rx="10" fill="#374B3C"/>
<rect x="105.238" y="180.903" width="81.3333" height="90" rx="10" fill="#374B3C"/>
<rect x="196.57" y="19.9033" width="81.3333" height="251" rx="10" fill="#A5C686"/>
</svg>
