<svg width="233" height="33" viewBox="0 0 233 33" fill="none" xmlns="http://www.w3.org/2000/svg">
<path d="M219.947 27.9272C218.575 27.9272 217.346 27.5893 216.26 26.9134C215.195 26.2376 214.346 25.316 213.711 24.1486C213.096 22.9813 212.789 21.6501 212.789 20.155C212.789 18.66 213.096 17.3288 213.711 16.1614C214.346 14.9941 215.195 14.0725 216.26 13.3966C217.346 12.7208 218.575 12.3829 219.947 12.3829C220.95 12.3829 221.851 12.5774 222.65 12.9666C223.469 13.3557 224.135 13.8984 224.647 14.5947C225.159 15.2706 225.446 16.0488 225.507 16.9294V23.3806C225.446 24.2613 225.159 25.0498 224.647 25.7461C224.155 26.4219 223.5 26.9544 222.681 27.3435C221.862 27.7326 220.95 27.9272 219.947 27.9272ZM220.899 23.6878C221.903 23.6878 222.712 23.3602 223.326 22.7048C223.94 22.029 224.248 21.179 224.248 20.155C224.248 19.4587 224.104 18.8443 223.818 18.3118C223.551 17.7794 223.162 17.3698 222.65 17.083C222.159 16.7758 221.585 16.6222 220.93 16.6222C220.275 16.6222 219.691 16.7758 219.179 17.083C218.687 17.3698 218.288 17.7794 217.981 18.3118C217.694 18.8443 217.551 19.4587 217.551 20.155C217.551 20.8309 217.694 21.435 217.981 21.9675C218.267 22.5 218.667 22.9198 219.179 23.227C219.691 23.5342 220.264 23.6878 220.899 23.6878ZM224.063 27.62V23.5957L224.77 19.9707L224.063 16.3458V12.6901H228.671V27.62H224.063Z" fill="#A5C686"/>
<path d="M206.303 27.62V19.1106C206.303 18.3323 206.057 17.7077 205.565 17.2366C205.094 16.7451 204.49 16.4994 203.753 16.4994C203.241 16.4994 202.79 16.612 202.401 16.8373C202.012 17.0421 201.705 17.3493 201.479 17.7589C201.254 18.148 201.142 18.5986 201.142 19.1106L199.329 18.2197C199.329 17.0523 199.575 16.0283 200.066 15.1477C200.558 14.267 201.244 13.5912 202.125 13.1202C203.005 12.6286 204.019 12.3829 205.166 12.3829C206.333 12.3829 207.357 12.6286 208.238 13.1202C209.119 13.5912 209.794 14.2568 210.265 15.117C210.757 15.9566 211.003 16.9397 211.003 18.0661V27.62H206.303ZM196.441 27.62V5.31728H201.142V27.62H196.441Z" fill="#A5C686"/>
<path d="M188.726 27.9579C187.19 27.9579 185.797 27.62 184.548 26.9442C183.298 26.2683 182.315 25.3365 181.599 24.1486C180.882 22.9608 180.523 21.6296 180.523 20.155C180.523 18.66 180.882 17.3288 181.599 16.1614C182.336 14.9736 183.329 14.0418 184.578 13.3659C185.828 12.6901 187.231 12.3522 188.787 12.3522C189.954 12.3522 191.019 12.557 191.982 12.9666C192.965 13.3557 193.835 13.9496 194.593 14.7483L191.583 17.7589C191.234 17.3698 190.825 17.083 190.354 16.8987C189.903 16.7144 189.381 16.6222 188.787 16.6222C188.111 16.6222 187.507 16.7758 186.975 17.083C186.463 17.3698 186.053 17.7794 185.746 18.3118C185.459 18.8238 185.316 19.428 185.316 20.1243C185.316 20.8206 185.459 21.435 185.746 21.9675C186.053 22.5 186.473 22.9198 187.005 23.227C187.538 23.5342 188.132 23.6878 188.787 23.6878C189.402 23.6878 189.944 23.5854 190.415 23.3806C190.907 23.1554 191.327 22.8482 191.675 22.459L194.655 25.4696C193.876 26.2888 192.996 26.9134 192.013 27.3435C191.03 27.7531 189.934 27.9579 188.726 27.9579Z" fill="#A5C686"/>
<path d="M175.102 27.9579C173.914 27.9579 172.87 27.7224 171.969 27.2514C171.088 26.7803 170.402 26.1045 169.911 25.2238C169.419 24.3432 169.173 23.2987 169.173 22.0904V6.51537H173.873V22.1211C173.873 22.6536 174.017 23.053 174.303 23.3192C174.611 23.5854 174.969 23.7186 175.379 23.7186C175.727 23.7186 176.024 23.6674 176.27 23.565C176.536 23.4421 176.771 23.268 176.976 23.0427L179.833 25.9304C179.26 26.5858 178.615 27.0875 177.898 27.4357C177.181 27.7838 176.249 27.9579 175.102 27.9579ZM165.855 16.7144V12.6901H178.758V16.7144H165.855Z" fill="#A5C686"/>
<path d="M155.326 27.9272C153.954 27.9272 152.725 27.5893 151.639 26.9134C150.574 26.2376 149.724 25.316 149.09 24.1486C148.475 22.9813 148.168 21.6501 148.168 20.155C148.168 18.66 148.475 17.3288 149.09 16.1614C149.724 14.9941 150.574 14.0725 151.639 13.3966C152.725 12.7208 153.954 12.3829 155.326 12.3829C156.329 12.3829 157.23 12.5774 158.029 12.9666C158.848 13.3557 159.514 13.8984 160.026 14.5947C160.538 15.2706 160.825 16.0488 160.886 16.9294V23.3806C160.825 24.2613 160.538 25.0498 160.026 25.7461C159.534 26.4219 158.879 26.9544 158.06 27.3435C157.241 27.7326 156.329 27.9272 155.326 27.9272ZM156.278 23.6878C157.282 23.6878 158.091 23.3602 158.705 22.7048C159.319 22.029 159.627 21.179 159.627 20.155C159.627 19.4587 159.483 18.8443 159.196 18.3118C158.93 17.7794 158.541 17.3698 158.029 17.083C157.538 16.7758 156.964 16.6222 156.309 16.6222C155.653 16.6222 155.07 16.7758 154.558 17.083C154.066 17.3698 153.667 17.7794 153.36 18.3118C153.073 18.8443 152.93 19.4587 152.93 20.155C152.93 20.8309 153.073 21.435 153.36 21.9675C153.646 22.5 154.046 22.9198 154.558 23.227C155.07 23.5342 155.643 23.6878 156.278 23.6878ZM159.442 27.62V23.5957L160.149 19.9707L159.442 16.3458V12.6901H164.05V27.62H159.442Z" fill="#A5C686"/>
<path d="M123.457 27.62V5.93169H126.898L135.438 19.2334H133.687L142.196 5.93169H145.668V27.62H140.845V14.0725L141.705 14.2875L136.144 22.9506H132.95L127.42 14.2875L128.249 14.0725V27.62H123.457Z" fill="#A5C686"/>
<path d="M105.882 27.9272C104.469 27.9272 103.21 27.5893 102.104 26.9134C101.018 26.2376 100.158 25.316 99.5232 24.1486C98.9088 22.9813 98.6016 21.6501 98.6016 20.155C98.6016 18.66 98.9088 17.3288 99.5232 16.1614C100.158 14.9941 101.018 14.0725 102.104 13.3966C103.21 12.7208 104.469 12.3829 105.882 12.3829C106.906 12.3829 107.828 12.5774 108.647 12.9666C109.487 13.3557 110.173 13.8984 110.705 14.5947C111.258 15.2706 111.565 16.0488 111.627 16.9294V23.227C111.565 24.1077 111.268 24.9064 110.736 25.6232C110.203 26.3195 109.517 26.8827 108.678 27.3128C107.838 27.7224 106.906 27.9272 105.882 27.9272ZM106.712 23.6878C107.387 23.6878 107.971 23.5445 108.463 23.2578C108.954 22.9506 109.343 22.5307 109.63 21.9982C109.917 21.4658 110.06 20.8514 110.06 20.155C110.06 19.4587 109.917 18.8546 109.63 18.3426C109.364 17.8101 108.975 17.3902 108.463 17.083C107.971 16.7758 107.398 16.6222 106.742 16.6222C106.087 16.6222 105.503 16.7758 104.991 17.083C104.5 17.3902 104.1 17.8101 103.793 18.3426C103.507 18.875 103.363 19.4792 103.363 20.155C103.363 20.8309 103.507 21.435 103.793 21.9675C104.08 22.5 104.479 22.9198 104.991 23.227C105.503 23.5342 106.077 23.6878 106.712 23.6878ZM114.484 27.62H109.876V23.5957L110.582 19.9707L109.784 16.3458V5.31728H114.484V27.62Z" fill="#A5C686"/>
<path d="M82.6016 27.62V19.2334C82.6016 17.8613 82.8985 16.6632 83.4924 15.6392C84.1068 14.5947 84.9465 13.7858 86.0115 13.2123C87.0969 12.6389 88.3462 12.3522 89.7593 12.3522C91.1929 12.3522 92.4422 12.6389 93.5072 13.2123C94.5721 13.7858 95.4016 14.5845 95.9955 15.6085C96.5894 16.6325 96.8864 17.8408 96.8864 19.2334V27.62H92.1862V19.3256C92.1862 18.4654 91.9712 17.7896 91.5411 17.2981C91.1315 16.7861 90.5376 16.5301 89.7593 16.5301C88.9606 16.5301 88.3462 16.7861 87.9161 17.2981C87.5065 17.7896 87.3017 18.4654 87.3017 19.3256V27.62H82.6016Z" fill="#A5C686"/>
<path d="M75.2664 27.62V12.6901H79.9665V27.62H75.2664ZM77.6318 10.6318C76.8945 10.6318 76.2801 10.3861 75.7886 9.89457C75.3176 9.38256 75.082 8.76817 75.082 8.05137C75.082 7.31409 75.3176 6.69969 75.7886 6.20817C76.2801 5.71665 76.8945 5.47089 77.6318 5.47089C78.3691 5.47089 78.9732 5.71665 79.4443 6.20817C79.9153 6.69969 80.1508 7.31409 80.1508 8.05137C80.1508 8.76817 79.9153 9.38256 79.4443 9.89457C78.9732 10.3861 78.3691 10.6318 77.6318 10.6318Z" fill="#A5C686"/>
<path d="M49.6328 27.62V5.93169H53.0735L61.6136 19.2334H59.8626L68.372 5.93169H71.8434V27.62H67.0203V14.0725L67.8805 14.2875L62.3202 22.9506H59.1253L53.5957 14.2875L54.4251 14.0725V27.62H49.6328Z" fill="#A5C686"/>
<path d="M228.674 12.6903H224.065V13.9325C223.66 13.5448 223.19 13.222 222.652 12.9667C221.953 12.6262 221.176 12.435 220.32 12.3925L219.949 12.3827C218.577 12.3827 217.348 12.7206 216.263 13.3964C215.198 14.0721 214.348 14.9938 213.713 16.161L213.602 16.3827C213.062 17.4962 212.791 18.7536 212.791 20.1552L212.806 20.7079C212.873 21.9802 213.175 23.1269 213.713 24.1483C214.348 25.3156 215.198 26.2371 216.263 26.913C217.28 27.5466 218.424 27.8841 219.693 27.9237L219.949 27.9276C220.952 27.9276 221.864 27.7326 222.683 27.3436C223.212 27.0921 223.673 26.7795 224.065 26.4081V27.62H228.674V12.6903ZM217.553 20.1552C217.553 19.4588 217.696 18.8439 217.982 18.3114C218.29 17.779 218.689 17.3696 219.181 17.0829C219.693 16.7757 220.276 16.622 220.932 16.6219C221.587 16.6219 222.161 16.7757 222.652 17.0829C223.164 17.3695 223.553 17.7792 223.819 18.3114C224.106 18.8439 224.25 19.4588 224.25 20.1552C224.25 21.1791 223.943 22.0291 223.328 22.705C222.714 23.3602 221.905 23.6874 220.901 23.6874V21.1874C221.291 21.1874 221.412 21.0893 221.495 21.0018C221.632 20.8438 221.75 20.6181 221.75 20.1552C221.75 19.8094 221.681 19.6134 221.618 19.4969L221.601 19.4637L221.584 19.4296C221.538 19.3383 221.499 19.3027 221.431 19.2645L221.378 19.2352L221.327 19.203C221.283 19.1754 221.181 19.1219 220.932 19.1219C220.684 19.122 220.553 19.1748 220.467 19.2264L220.454 19.2343L220.44 19.2421C220.36 19.2891 220.268 19.3656 220.168 19.5302C220.11 19.6496 220.053 19.84 220.053 20.1552C220.053 20.4664 220.115 20.6551 220.184 20.7821C220.26 20.9238 220.346 21.0102 220.467 21.0829C220.565 21.1421 220.69 21.1874 220.901 21.1874V23.6874L220.666 23.6805C220.201 23.6517 219.771 23.5364 219.376 23.3348L219.181 23.2274C218.733 22.9586 218.371 22.6032 218.096 22.162L217.982 21.9677C217.732 21.5018 217.591 20.9808 217.56 20.4052L217.553 20.1552ZM231.174 30.12H222.345C221.572 30.3276 220.771 30.4276 219.949 30.4276C218.146 30.4276 216.452 29.9768 214.941 29.036L214.932 29.0302L214.923 29.0243C213.48 28.1085 212.343 26.8626 211.517 25.3427L211.509 25.328L211.5 25.3134C211.31 24.9519 211.145 24.5806 211.001 24.202V18.0663C211.001 17.5364 210.945 17.0386 210.836 16.5721C211.012 16.031 211.233 15.505 211.5 14.9969L211.509 14.9823L211.517 14.9667C212.343 13.4469 213.48 12.2018 214.923 11.286L214.932 11.2802L214.941 11.2743C216.452 10.3335 218.146 9.88269 219.949 9.88269C220.767 9.88271 221.566 9.98168 222.334 10.1903H231.174V30.12Z" fill="#374B3C"/>
<path d="M211.002 18.0663C211.002 16.9399 210.756 15.9567 210.265 15.1171C209.794 14.2569 209.118 13.591 208.237 13.12C207.357 12.6285 206.332 12.3827 205.165 12.3827C204.018 12.3827 203.005 12.6285 202.124 13.12C201.763 13.3129 201.437 13.542 201.142 13.8036V5.31726H196.441V27.62H201.142V19.1102C201.142 18.5984 201.254 18.1477 201.479 17.7587C201.705 17.3492 202.011 17.0415 202.4 16.8368C202.789 16.6116 203.24 16.499 203.752 16.4989C204.489 16.4989 205.093 16.7449 205.564 17.2362C206.056 17.7072 206.302 18.3321 206.302 19.1102V27.62H211.002V18.0663ZM203.642 10.0009C204.139 9.92158 204.648 9.88271 205.165 9.88269C206.676 9.88269 208.118 10.2012 209.416 10.9159H209.417C210.717 11.6115 211.749 12.6218 212.458 13.9159H212.457C212.97 14.8119 213.28 15.7815 213.417 16.7958C213.001 17.8045 212.792 18.9243 212.792 20.1552C212.792 21.4665 213.029 22.6516 213.502 23.7108V30.12H203.802V19.1102C203.802 19.0598 203.797 19.0245 203.794 19.0018C203.783 19.0011 203.769 18.9989 203.752 18.9989C203.699 18.9989 203.666 19.0047 203.649 19.0077C203.646 19.0248 203.642 19.0576 203.642 19.1102V30.12H193.941V26.1405C194.188 25.9332 194.427 25.7106 194.656 25.4696L193.941 24.7469V15.4012L194.595 14.7479C194.386 14.5277 194.168 14.3238 193.941 14.1346V2.81726H203.642V10.0009Z" fill="#374B3C"/>
<path d="M188.787 9.85242C190.252 9.85245 191.655 10.1101 192.961 10.6659L192.96 10.6669C194.271 11.1956 195.423 11.9914 196.406 13.0272L196.439 13.0614V16.4374L192.816 20.0594L196.432 23.7108L196.439 23.7186V27.2186C195.45 28.2531 194.307 29.0681 193.015 29.6337L192.974 29.6512C191.648 30.2037 190.22 30.4579 188.726 30.4579C186.809 30.4579 185.002 30.0326 183.358 29.1434C181.913 28.3614 180.716 27.2971 179.799 25.9667C179.81 25.9543 179.822 25.943 179.833 25.9305L179.648 25.744C179.583 25.6442 179.52 25.543 179.458 25.4403C178.491 23.838 178.023 22.0551 178.023 20.1552C178.023 18.9545 178.206 17.8016 178.585 16.7147H178.758V16.2587C178.954 15.7758 179.19 15.3065 179.468 14.8534L179.475 14.8427C180.445 13.279 181.763 12.0463 183.389 11.1669C185.037 10.2749 186.856 9.85242 188.787 9.85242ZM185.315 20.1239C185.315 19.4278 185.458 18.8233 185.745 18.3114C186.014 17.8455 186.362 17.4739 186.787 17.1962L186.975 17.0829C187.507 16.7758 188.111 16.6219 188.787 16.6219L189.006 16.6268C189.51 16.647 189.959 16.737 190.354 16.8983C190.824 17.0826 191.234 17.3697 191.582 17.7587L194.593 14.7479C193.93 14.0491 193.18 13.5072 192.345 13.1219L191.981 12.9667C191.139 12.6083 190.219 12.407 189.22 12.3622L188.787 12.3524C187.231 12.3524 185.827 12.6902 184.578 13.3661L184.347 13.496C183.206 14.1595 182.29 15.0477 181.599 16.161L181.468 16.3827C180.838 17.4962 180.523 18.7538 180.523 20.1552L180.527 20.4296C180.569 21.7952 180.927 23.0347 181.599 24.1483C182.315 25.3362 183.299 26.2684 184.548 26.9442C185.719 27.5778 187.016 27.9144 188.439 27.954L188.726 27.9579C189.783 27.9579 190.754 27.8008 191.639 27.4872L192.013 27.3436C192.873 26.9673 193.654 26.4416 194.357 25.7675L194.654 25.4696L191.675 22.4589C191.327 22.848 190.907 23.1555 190.415 23.3807L190.235 23.453C189.808 23.6098 189.325 23.6874 188.787 23.6874V21.1874C189.105 21.1873 189.294 21.1362 189.399 21.0936C189.576 21.0089 189.706 20.9097 189.812 20.7919L190.376 20.16L189.72 19.4257C189.624 19.3187 189.537 19.2633 189.442 19.2264L189.407 19.2128C189.315 19.1752 189.126 19.122 188.787 19.1219C188.505 19.1219 188.339 19.1822 188.224 19.2489L188.196 19.2645C188.099 19.319 188.01 19.3949 187.919 19.5477C187.877 19.6287 187.815 19.7965 187.815 20.1239C187.815 20.4399 187.874 20.6305 187.932 20.7499C188.015 20.8842 188.113 20.9802 188.254 21.0614C188.381 21.1349 188.54 21.1874 188.787 21.1874V23.6874L188.544 23.6805C188.064 23.6517 187.619 23.5364 187.208 23.3348L187.005 23.2274C186.472 22.9202 186.052 22.5001 185.745 21.9677C185.458 21.4352 185.315 20.8202 185.315 20.1239Z" fill="#374B3C"/>
<path d="M178.758 12.6903H173.873V6.5155H169.173V12.6903H165.855V16.7147H169.173V22.0907L169.185 22.536C169.238 23.5572 169.48 24.4531 169.91 25.2235C170.402 26.1042 171.088 26.7808 171.969 27.2518C172.87 27.7227 173.914 27.9578 175.102 27.9579C176.248 27.9579 177.181 27.7836 177.897 27.4354C178.525 27.1308 179.097 26.7086 179.614 26.1688L179.833 25.9305L176.976 23.0428C176.771 23.268 176.536 23.4425 176.27 23.5653L176.075 23.6317C175.872 23.6893 175.64 23.7186 175.379 23.7186L175.228 23.7128C174.88 23.6837 174.573 23.5521 174.304 23.3192C174.017 23.053 173.873 22.6535 173.873 22.121V16.7147H178.758V12.6903ZM176.373 10.1903H181.258V16.786C180.896 17.5345 180.668 18.3438 180.574 19.2147H176.373V19.9891L176.899 19.411L181.61 24.1718L181.618 24.1796C182.032 24.859 182.534 25.4541 183.124 25.9647L181.715 27.577C180.942 28.4604 180.034 29.1772 178.99 29.6844C177.817 30.2542 176.473 30.4579 175.102 30.4579C173.578 30.4578 172.125 30.1536 170.811 29.4667L170.8 29.4618L170.789 29.4559C169.482 28.7568 168.45 27.7364 167.728 26.4423C166.991 25.1219 166.673 23.6411 166.673 22.0907V19.2147H164.051V12.6903H163.355V10.1903H166.673V4.0155H176.373V10.1903Z" fill="#374B3C"/>
<path d="M164.05 12.6903H159.442V13.9325C159.037 13.5448 158.567 13.222 158.029 12.9667C157.33 12.6262 156.553 12.435 155.697 12.3925L155.326 12.3827C153.954 12.3827 152.725 12.7207 151.64 13.3964C150.575 14.0721 149.725 14.9939 149.09 16.161L148.978 16.3827C148.438 17.4962 148.168 18.7538 148.168 20.1552L148.183 20.7079C148.25 21.9802 148.552 23.1269 149.09 24.1483C149.725 25.3157 150.575 26.2371 151.64 26.913C152.657 27.5466 153.801 27.8841 155.07 27.9237L155.326 27.9276C156.329 27.9276 157.241 27.7326 158.06 27.3436C158.589 27.0921 159.05 26.7795 159.442 26.4081V27.62H164.05V12.6903ZM152.93 20.1552C152.93 19.4588 153.073 18.8439 153.359 18.3114C153.667 17.779 154.066 17.3696 154.558 17.0829C155.07 16.7757 155.653 16.622 156.309 16.6219C156.964 16.6219 157.538 16.7757 158.029 17.0829C158.541 17.3695 158.93 17.7792 159.196 18.3114C159.483 18.8439 159.627 19.4588 159.627 20.1552C159.627 21.1791 159.319 22.0291 158.705 22.705C158.091 23.3602 157.282 23.6873 156.278 23.6874V21.1874C156.668 21.1873 156.789 21.0893 156.872 21.0018C157.009 20.8438 157.127 20.6181 157.127 20.1552C157.127 19.8094 157.058 19.6134 156.995 19.4969L156.978 19.4637L156.96 19.4296C156.914 19.3386 156.876 19.3026 156.808 19.2645L156.755 19.2352L156.704 19.203C156.66 19.1755 156.558 19.1219 156.309 19.1219C156.061 19.122 155.93 19.1748 155.844 19.2264L155.831 19.2343L155.817 19.2421C155.737 19.289 155.645 19.3656 155.545 19.5302C155.487 19.6496 155.43 19.8399 155.43 20.1552C155.43 20.4664 155.492 20.6551 155.561 20.7821C155.637 20.9238 155.723 21.0102 155.844 21.0829C155.942 21.1421 156.067 21.1874 156.278 21.1874V23.6874L156.043 23.6805C155.578 23.6518 155.148 23.5364 154.753 23.3348L154.558 23.2274C154.11 22.9586 153.748 22.6032 153.473 22.162L153.359 21.9677C153.109 21.5018 152.968 20.9808 152.937 20.4052L152.93 20.1552ZM165.854 16.7147H166.55V30.12H157.722C156.949 30.3276 156.148 30.4276 155.326 30.4276C153.523 30.4276 151.829 29.9767 150.318 29.036L150.309 29.0302L150.3 29.0243C148.857 28.1085 147.72 26.8626 146.894 25.3427L146.886 25.328L146.877 25.3134C146.05 23.7416 145.668 22.0012 145.668 20.1552C145.668 18.3091 146.05 16.5688 146.877 14.9969L146.886 14.9823L146.894 14.9667C147.72 13.4469 148.857 12.2018 150.3 11.286L150.309 11.2802L150.318 11.2743C151.829 10.3335 153.523 9.88269 155.326 9.88269C156.144 9.88272 156.943 9.98167 157.711 10.1903H166.55V12.6903H165.854V16.7147Z" fill="#374B3C"/>
<path d="M145.667 5.93152H142.196L134.56 17.8671L126.897 5.93152H123.457V27.62H128.249V15.5868L132.949 22.9501H136.145L140.845 15.6268V27.62H145.667V5.93152ZM148.167 30.12H138.345V24.1493L138.248 24.3007L137.511 25.4501H131.579L130.749 24.1503V30.12H120.957V3.43152H128.264L134.557 13.2343L140.827 3.43152H148.167V30.12Z" fill="#374B3C"/>
<path d="M114.483 5.31726H109.783V13.66C109.442 13.3913 109.064 13.1598 108.647 12.9667C107.828 12.5776 106.906 12.3827 105.882 12.3827C104.469 12.3828 103.209 12.7206 102.104 13.3964C101.018 14.0721 100.158 14.9939 99.5234 16.161L99.4111 16.3827C98.8713 17.4962 98.6016 18.7538 98.6016 20.1552L98.6162 20.7079C98.6834 21.9802 98.9859 23.1269 99.5234 24.1483C100.158 25.3156 101.018 26.2371 102.104 26.913C103.14 27.5466 104.312 27.8841 105.619 27.9237L105.882 27.9276C106.906 27.9276 107.838 27.722 108.678 27.3124C109.12 27.0858 109.519 26.8217 109.876 26.5214V27.62H114.483V5.31726ZM103.363 20.1552C103.363 19.4794 103.506 18.8751 103.793 18.3427C104.1 17.8102 104.5 17.3901 104.991 17.0829C105.503 16.7757 106.087 16.622 106.742 16.6219C107.398 16.6219 107.971 16.7757 108.463 17.0829C108.975 17.3901 109.364 17.8102 109.63 18.3427C109.917 18.8547 110.061 19.4588 110.061 20.1552C110.061 20.8514 109.917 21.4655 109.63 21.9979C109.343 22.5303 108.954 22.9505 108.463 23.2577C107.971 23.5444 107.388 23.6873 106.712 23.6874V21.1874C106.971 21.1873 107.106 21.1436 107.17 21.1141C107.263 21.0494 107.348 20.9629 107.429 20.8134C107.491 20.697 107.561 20.5008 107.561 20.1552C107.561 19.8072 107.491 19.6393 107.449 19.5643L107.42 19.5126L107.394 19.4608C107.341 19.355 107.282 19.2898 107.177 19.2264L107.138 19.203C107.094 19.1755 106.992 19.1219 106.742 19.1219C106.514 19.122 106.385 19.1673 106.299 19.2147C106.189 19.2867 106.083 19.3887 105.979 19.5585C105.917 19.6848 105.863 19.8675 105.863 20.1552C105.863 20.4664 105.926 20.6551 105.994 20.7821C106.07 20.9238 106.156 21.0102 106.277 21.0829C106.376 21.1421 106.5 21.1874 106.712 21.1874V23.6874L106.477 23.6805C106.012 23.6518 105.582 23.5364 105.187 23.3348L104.991 23.2274C104.543 22.9586 104.182 22.6032 103.906 22.162L103.793 21.9677C103.542 21.5017 103.401 20.9808 103.37 20.4052L103.363 20.1552ZM116.983 30.12H108.269C107.499 30.3264 106.7 30.4276 105.882 30.4276C104.052 30.4276 102.333 29.9839 100.8 29.0468L100.791 29.0409L100.782 29.036C99.3152 28.1226 98.1601 26.8742 97.3271 25.3427L97.3184 25.328L97.3105 25.3134C97.1533 25.0147 97.0122 24.7097 96.8867 24.3993V19.2333C96.8867 18.3797 96.7739 17.5958 96.5508 16.8807C96.7408 16.2304 96.9926 15.6011 97.3105 14.9969L97.3184 14.9823L97.3271 14.9667C98.1601 13.4353 99.3153 12.1877 100.782 11.2743L100.791 11.2684L100.8 11.2635C102.333 10.3264 104.052 9.88275 105.882 9.88269C106.356 9.88269 106.824 9.91614 107.283 9.9823V2.81726H116.983V30.12Z" fill="#374B3C"/>
<path d="M96.8867 19.2333C96.8867 17.9277 96.6255 16.7842 96.1035 15.8026L95.9961 15.6083C95.4764 14.7123 94.7758 13.9894 93.8955 13.4384L93.5078 13.2128C92.5759 12.711 91.5023 12.4278 90.2881 12.3651L89.7598 12.3524C88.3466 12.3524 87.0972 12.6393 86.0117 13.2128L85.623 13.4384C84.7404 13.9916 84.0298 14.7256 83.4922 15.6395L83.3848 15.8329C82.8627 16.8133 82.6016 17.9468 82.6016 19.2333V27.62H87.3018V19.326C87.3018 18.4659 87.5064 17.7892 87.916 17.2977C88.3461 16.7858 88.9611 16.5302 89.7598 16.5302L90.043 16.5419C90.6833 16.5979 91.1827 16.85 91.541 17.2977C91.9711 17.7892 92.1865 18.4659 92.1865 19.326V27.62H96.8867V19.2333ZM99.1562 16.9716C98.7865 17.9341 98.6016 18.9954 98.6016 20.1552C98.6016 21.5343 98.8639 22.7736 99.3867 23.8739V30.12H80.1016V19.2333C80.1016 17.4916 80.4821 15.8467 81.3301 14.3846L81.334 14.3778L81.3379 14.3719C82.1835 12.9344 83.3581 11.8022 84.8262 11.0116L84.8438 11.0018C86.3401 10.2113 88.0015 9.85242 89.7598 9.85242C91.5304 9.85245 93.2013 10.2087 94.6924 11.0116C96.1551 11.7992 97.3271 12.9214 98.1582 14.3544C98.633 15.1731 98.9597 16.0508 99.1562 16.9716Z" fill="#374B3C"/>
<path d="M79.9668 12.6903H75.2666V27.62H79.9668V12.6903ZM80.1514 8.05164C80.1514 7.31436 79.9154 6.69941 79.4443 6.20789C79.0322 5.77796 78.5182 5.53606 77.9023 5.4823L77.6318 5.47058C76.8948 5.47063 76.2805 5.71658 75.7891 6.20789L75.623 6.39832C75.2625 6.85525 75.082 7.40658 75.082 8.05164L75.0938 8.31531C75.1453 8.92011 75.3769 9.44641 75.7891 9.89441L75.9785 10.0673C76.4355 10.4437 76.9867 10.6317 77.6318 10.6317C78.3691 10.6317 78.9733 10.3859 79.4443 9.89441C79.8565 9.44641 80.0881 8.92011 80.1396 8.31531L80.1514 8.05164ZM82.6514 8.05164C82.6513 8.80507 82.5018 9.52614 82.2061 10.1903H82.4668V30.12H72.7666V10.1903H73.0273C72.7316 9.52614 72.5821 8.80508 72.582 8.05164C72.582 6.72847 73.0275 5.47598 73.9834 4.47839L74.002 4.45886L74.0215 4.44031C75.0124 3.44952 76.2763 2.97063 77.6318 2.97058C78.9877 2.97058 80.2647 3.45142 81.249 4.47839C82.2051 5.47601 82.6514 6.72837 82.6514 8.05164Z" fill="#374B3C"/>
<path d="M71.8438 5.93152H68.3721L60.7354 17.8671L53.0732 5.93152H49.6328V27.62H54.4248V15.5868L59.125 22.9501H62.3203L67.0205 15.6278V27.62H71.8438V5.93152ZM74.3438 30.12H64.5205V24.1493L64.4238 24.3007L63.6865 25.4501H57.7549L57.0186 24.2958L56.9248 24.1483V30.12H47.1328V3.43152H54.4395L60.7324 13.2333L67.0039 3.43152H74.3438V30.12Z" fill="#374B3C"/>
<rect x="101" y="14.5" width="11.24" height="11.4404" rx="5.62" fill="#A5C686"/>
<path fill-rule="evenodd" clip-rule="evenodd" d="M106.534 23.6809C106.534 24.2187 106.087 24.6622 105.566 24.529C104.009 24.1312 102.785 22.8737 102.404 21.2782C102.279 20.7555 102.722 20.309 103.26 20.309H103.813C103.886 20.309 103.96 20.3169 104.031 20.3358C105.242 20.6603 106.195 21.637 106.51 22.8771C106.527 22.9452 106.534 23.0154 106.534 23.0856V23.6809ZM106.708 23.6809C106.708 24.2187 107.156 24.6622 107.677 24.529C109.233 24.1312 110.457 22.8737 110.838 21.2782C110.963 20.7555 110.52 20.309 109.983 20.309H109.429C109.356 20.309 109.283 20.3169 109.212 20.3358C108.001 20.6603 107.047 21.6372 106.733 22.8774C106.715 22.9455 106.708 23.0157 106.708 23.0859V23.6809ZM109.983 20.1313C110.52 20.1313 110.963 19.6848 110.838 19.1622C110.457 17.5666 109.233 16.3091 107.677 15.9113C107.156 15.7782 106.708 16.2217 106.708 16.7595V17.3544C106.708 17.4247 106.715 17.4949 106.733 17.5629C107.047 18.8031 108 19.7799 109.212 20.1045C109.282 20.1235 109.356 20.1313 109.429 20.1313H109.983ZM106.534 16.7595C106.534 16.2217 106.087 15.7782 105.566 15.9113C104.009 16.3092 102.786 17.5666 102.404 19.1622C102.279 19.6848 102.722 20.1313 103.26 20.1313H103.813C103.887 20.1313 103.96 20.1235 104.031 20.1045C105.242 19.78 106.195 18.8032 106.51 17.5633C106.527 17.4952 106.534 17.425 106.534 17.3548V16.7595Z" fill="#374B3C"/>
<rect x="150.48" y="14.5" width="11.24" height="11.4404" rx="5.62" fill="#A5C686"/>
<path fill-rule="evenodd" clip-rule="evenodd" d="M156.015 23.6809C156.015 24.2187 155.567 24.6622 155.046 24.529C153.49 24.1312 152.266 22.8737 151.885 21.2782C151.76 20.7555 152.203 20.309 152.74 20.309H153.294C153.367 20.309 153.44 20.3169 153.511 20.3358C154.722 20.6603 155.675 21.637 155.99 22.8771C156.008 22.9452 156.015 23.0154 156.015 23.0856V23.6809ZM156.188 23.6809C156.188 24.2187 156.636 24.6622 157.157 24.529C158.714 24.1312 159.937 22.8737 160.319 21.2782C160.443 20.7555 160.001 20.309 159.463 20.309H158.91C158.837 20.309 158.763 20.3169 158.692 20.3358C157.481 20.6603 156.528 21.6372 156.213 22.8774C156.196 22.9455 156.188 23.0157 156.188 23.0859V23.6809ZM159.463 20.1313C160.001 20.1313 160.443 19.6848 160.319 19.1622C159.937 17.5666 158.714 16.3091 157.157 15.9113C156.636 15.7782 156.188 16.2217 156.188 16.7595V17.3544C156.188 17.4247 156.196 17.4949 156.213 17.5629C156.528 18.8031 157.481 19.7799 158.692 20.1045C158.763 20.1235 158.836 20.1313 158.91 20.1313H159.463ZM156.015 16.7595C156.015 16.2217 155.567 15.7782 155.046 15.9113C153.49 16.3092 152.266 17.5666 151.885 19.1622C151.76 19.6848 152.203 20.1313 152.74 20.1313H153.294C153.367 20.1313 153.441 20.1235 153.511 20.1045C154.722 19.78 155.676 18.8032 155.99 17.5633C156.008 17.4952 156.015 17.425 156.015 17.3548V16.7595Z" fill="#374B3C"/>
<rect x="215.48" y="14.5" width="11.24" height="11.4404" rx="5.62" fill="#A5C686"/>
<path fill-rule="evenodd" clip-rule="evenodd" d="M221.015 23.6809C221.015 24.2187 220.567 24.6622 220.046 24.529C218.49 24.1312 217.266 22.8737 216.885 21.2782C216.76 20.7555 217.203 20.309 217.74 20.309H218.294C218.367 20.309 218.44 20.3169 218.511 20.3358C219.722 20.6603 220.675 21.637 220.99 22.8771C221.008 22.9452 221.015 23.0154 221.015 23.0856V23.6809ZM221.188 23.6809C221.188 24.2187 221.636 24.6622 222.157 24.529C223.714 24.1312 224.937 22.8737 225.319 21.2782C225.443 20.7555 225.001 20.309 224.463 20.309H223.91C223.837 20.309 223.763 20.3169 223.692 20.3358C222.481 20.6603 221.528 21.6372 221.213 22.8774C221.196 22.9455 221.188 23.0157 221.188 23.0859V23.6809ZM224.463 20.1313C225.001 20.1313 225.443 19.6848 225.319 19.1622C224.937 17.5666 223.714 16.3091 222.157 15.9113C221.636 15.7782 221.188 16.2217 221.188 16.7595V17.3544C221.188 17.4247 221.196 17.4949 221.213 17.5629C221.528 18.8031 222.481 19.7799 223.692 20.1045C223.763 20.1235 223.836 20.1313 223.91 20.1313H224.463ZM221.015 16.7595C221.015 16.2217 220.567 15.7782 220.046 15.9113C218.49 16.3092 217.266 17.5666 216.885 19.1622C216.76 19.6848 217.203 20.1313 217.74 20.1313H218.294C218.367 20.1313 218.441 20.1235 218.511 20.1045C219.722 19.78 220.676 18.8032 220.99 17.5633C221.008 17.4952 221.015 17.425 221.015 17.3548V16.7595Z" fill="#374B3C"/>
<path d="M14.8857 3.5C15.6614 3.50002 16.2998 4.12841 16.2998 4.91016V8.11035C17.5843 6.51692 19.2341 5.26123 21.1133 4.46484C23.3778 3.50519 25.8705 3.25476 28.2754 3.74414C30.6801 4.23349 32.8877 5.44059 34.6191 7.21191C36.3505 8.98313 37.5278 11.2388 38.0049 13.6924C38.482 16.146 38.2378 18.6892 37.3018 21.001C36.3657 23.313 34.7792 25.2913 32.7422 26.6836C30.7053 28.076 28.3094 28.8203 25.8574 28.8203C25.0818 28.8203 24.4434 28.1918 24.4434 27.4102V24.209C23.1588 25.8027 21.5083 27.058 19.6289 27.8545C17.3644 28.814 14.8717 29.0656 12.4668 28.5762C10.0624 28.0868 7.85525 26.8794 6.12402 25.1084C4.39279 23.3372 3.21435 21.0815 2.7373 18.6279C2.26025 16.1744 2.50549 13.6312 3.44141 11.3193C4.37744 9.00744 5.96317 7.02911 8 5.63672C10.0371 4.24416 12.4335 3.5 14.8857 3.5ZM13.0801 6.54688C11.8359 6.7921 10.6447 7.28983 9.58008 8.01758C8.00865 9.09186 6.78234 10.6202 6.05762 12.4102C5.33283 14.2003 5.14306 16.1711 5.5127 18.0723C5.88236 19.9732 6.79451 21.7177 8.13184 23.0859C9.46921 24.4541 11.1717 25.3849 13.0234 25.7617C14.8749 26.1385 16.7942 25.9454 18.5391 25.2061C19.3882 24.8462 20.1778 24.3642 20.8857 23.7793C20.9269 23.7453 20.9322 23.7218 20.9336 23.7002C20.9357 23.6656 20.9251 23.5995 20.873 23.5146C20.7614 23.3329 20.5528 23.208 20.3711 23.208C16.5499 23.2078 13.4718 20.0414 13.4717 16.1602V6.91211C13.4716 6.65444 13.2617 6.5112 13.0801 6.54688ZM27.7197 6.55859C25.8681 6.18178 23.9481 6.37479 22.2031 7.11426C21.3543 7.47396 20.5652 7.95535 19.8574 8.54004C19.8161 8.57418 19.8109 8.59845 19.8096 8.62012C19.8074 8.65476 19.8179 8.72066 19.8701 8.80566C19.9817 8.98734 20.1895 9.11215 20.3711 9.1123C24.1925 9.1123 27.2715 12.2787 27.2715 16.1602V25.4072C27.2715 25.6651 27.4813 25.8083 27.6631 25.7725C28.907 25.5272 30.0976 25.0303 31.1621 24.3027C32.7336 23.2285 33.9609 21.7002 34.6855 19.9102C35.4103 18.12 35.6001 16.1492 35.2305 14.248C34.8609 12.3472 33.9486 10.6027 32.6113 9.23438C31.274 7.86626 29.5713 6.93545 27.7197 6.55859ZM16.7285 16.7539C16.6108 16.7539 16.5127 16.8027 16.4541 16.8662C16.4 16.9248 16.38 16.992 16.3965 17.0684C16.7374 18.6462 17.9468 19.8828 19.4727 20.2354C19.5464 20.2523 19.6107 20.2333 19.668 20.1807C19.7306 20.1231 19.7803 20.0251 19.7803 19.9072V19.167C19.7803 19.1347 19.7761 19.1094 19.7715 19.0908C19.4849 17.9482 18.6078 17.0546 17.5039 16.7627C17.4852 16.7578 17.4597 16.7539 17.4258 16.7539H16.7285ZM23.2383 16.7627C22.1345 17.0547 21.2572 17.9481 20.9707 19.0908C20.966 19.1094 20.9629 19.1346 20.9629 19.167V19.9072C20.9629 20.0251 21.0125 20.1231 21.0752 20.1807C21.1324 20.2332 21.1968 20.2524 21.2705 20.2354C22.7963 19.8827 24.0058 18.6461 24.3467 17.0684C24.3632 16.992 24.343 16.9247 24.2891 16.8662C24.2305 16.8028 24.1322 16.754 24.0146 16.7539H23.3174C23.2833 16.7539 23.257 16.7577 23.2383 16.7627ZM21.2705 12.085C21.1967 12.0679 21.1325 12.087 21.0752 12.1396C21.0126 12.1972 20.963 12.2944 20.9629 12.4121V13.1533C20.9629 13.1857 20.966 13.2109 20.9707 13.2295C21.2573 14.3721 22.1346 15.2657 23.2383 15.5576C23.257 15.5626 23.2833 15.5664 23.3174 15.5664H24.0146C24.1322 15.5663 24.2305 15.5175 24.2891 15.4541C24.3431 15.3956 24.3631 15.3283 24.3467 15.252C24.0059 13.6741 22.7963 12.4376 21.2705 12.085ZM19.4727 12.085C17.9468 12.4375 16.7373 13.674 16.3965 15.252C16.38 15.3283 16.4 15.3956 16.4541 15.4541C16.5128 15.5175 16.6109 15.5664 16.7285 15.5664H17.4258C17.4599 15.5664 17.4861 15.5626 17.5049 15.5576C18.6085 15.2656 19.485 14.3719 19.7715 13.2295C19.7762 13.2109 19.7803 13.1858 19.7803 13.1533V12.4121C19.7802 12.2945 19.7305 12.1972 19.668 12.1396C19.6107 12.087 19.5464 12.0679 19.4727 12.085Z" fill="#A5C686" stroke="#A5C686"/>
<path d="M15.1074 2.76074C16.1985 2.87175 17.0497 3.7937 17.0498 4.91406V6.21289C18.1552 5.19287 19.4285 4.36466 20.8213 3.77441C23.2248 2.75598 25.8712 2.4892 28.4248 3.00879C30.9782 3.5284 33.3201 4.81015 35.1553 6.6875C36.9901 8.56461 38.2365 10.9532 38.7412 13.5488C39.246 16.1445 38.9877 18.8355 37.9971 21.2822C37.0064 23.7293 35.3266 25.8259 33.166 27.3027C31.0053 28.7799 28.4618 29.5703 25.8574 29.5703C24.6621 29.5703 23.6934 28.6006 23.6934 27.4053V26.1064C22.5879 27.1267 21.3149 27.9546 19.9219 28.5449C17.5181 29.5635 14.8713 29.8312 12.3174 29.3115C9.76393 28.7918 7.42199 27.5093 5.58691 25.6318C3.7523 23.7547 2.50562 21.3662 2.00098 18.7705C1.49638 16.1749 1.7555 13.4838 2.74609 11.0371C3.73686 8.59019 5.41676 6.49436 7.57715 5.01758C9.73793 3.54047 12.2813 2.75 14.8857 2.75L15.1074 2.76074ZM12.7217 7.39844C11.7598 7.64874 10.84 8.06525 10.0039 8.63672C8.55596 9.62651 7.42303 11.0365 6.75293 12.6914C6.08277 14.3467 5.90704 16.1697 6.24902 17.9287C6.59097 19.6874 7.43422 21.2992 8.66797 22.5615C9.90156 23.8236 11.4699 24.6798 13.1729 25.0264C14.8756 25.3729 16.6413 25.1951 18.2471 24.5146C18.6599 24.3397 19.057 24.1326 19.4365 23.8975C15.6325 23.4263 12.7218 20.1206 12.7217 16.1602V7.39844ZM27.5703 7.29297C25.8676 6.94646 24.1019 7.1242 22.4961 7.80469C22.083 7.97971 21.6854 8.18659 21.3057 8.42188C25.1101 8.89265 28.0215 12.1993 28.0215 16.1602V24.9199C28.9832 24.6696 29.9034 24.2549 30.7393 23.6836C32.1872 22.6939 33.3202 21.2837 33.9902 19.6289V19.6279C34.6602 17.973 34.836 16.1504 34.4941 14.3916C34.1522 12.6328 33.3091 11.0202 32.0752 9.75781C30.8416 8.49582 29.2731 7.63955 27.5703 7.29297Z" stroke="#374B3C" stroke-width="2.5"/>
<rect x="15" y="11" width="11" height="11" rx="5.5" fill="#A5C686"/>
<path fill-rule="evenodd" clip-rule="evenodd" d="M20.41 20.021C20.41 20.5585 19.9631 21.0016 19.4405 20.8755C17.8057 20.481 16.5189 19.1942 16.1245 17.5594C15.9984 17.0368 16.4415 16.59 16.979 16.59H17.5948C17.6666 16.59 17.7383 16.5976 17.8078 16.6156C19.0662 16.9427 20.057 17.9335 20.3843 19.1919C20.4024 19.2614 20.41 19.3332 20.41 19.405V20.021ZM20.59 20.021C20.59 20.5585 21.0368 21.0016 21.5594 20.8755C23.1942 20.481 24.481 19.1942 24.8755 17.5594C25.0016 17.0368 24.5585 16.59 24.021 16.59H23.4052C23.3334 16.59 23.2617 16.5975 23.1922 16.6156C21.9336 16.9427 20.9428 17.9336 20.6156 19.1922C20.5975 19.2617 20.59 19.3335 20.59 19.4053V20.021ZM24.021 16.41C24.5585 16.41 25.0016 15.9631 24.8755 15.4406C24.481 13.8057 23.1942 12.5189 21.5594 12.1245C21.0368 11.9984 20.59 12.4415 20.59 12.979V13.5947C20.59 13.6665 20.5975 13.7382 20.6156 13.8077C20.9428 15.0662 21.9335 16.0571 23.1919 16.3843C23.2614 16.4024 23.3332 16.41 23.405 16.41H24.021ZM20.41 12.979C20.41 12.4415 19.9631 11.9984 19.4406 12.1245C17.8058 12.5189 16.519 13.8058 16.1245 15.4406C15.9984 15.9631 16.4415 16.41 16.979 16.41H17.595C17.6668 16.41 17.7386 16.4024 17.8081 16.3843C19.0664 16.0571 20.0571 15.0664 20.3843 13.8081C20.4024 13.7386 20.41 13.6668 20.41 13.595V12.979Z" fill="#374B3C"/>
</svg>
